<svg width="129" height="140" viewBox="0 0 129 140" fill="none" xmlns="http://www.w3.org/2000/svg">
<g clip-path="url(#clip0_232_466)">
<path d="M28.4065 14.6557L30.3772 17.7357L37.4078 14.2503L41.0226 13.1451C41.4922 13.0015 41.9159 12.7372 42.2514 12.3785C42.5869 12.0199 42.8223 11.5795 42.9343 11.1013C43.0462 10.6232 43.0307 10.124 42.8893 9.6537C42.7478 9.18342 42.4855 8.75849 42.1284 8.42136C41.5992 7.9218 40.8967 7.64736 40.169 7.65596C39.4413 7.66456 38.7454 7.95553 38.2282 8.46747L35.1948 11.47L28.4065 14.6557Z" fill="#A0616A"/>
<path d="M31.7324 17.5921L29.1048 13.4854L19.1419 17.8686C18.4265 18.1833 17.8045 18.6776 17.3363 19.3035C16.8681 19.9293 16.5695 20.6656 16.4696 21.4408C16.3464 22.3966 16.5308 23.3669 16.9961 24.2109C17.4614 25.0549 18.1834 25.7287 19.0575 26.1348L34.9396 33.2768C36.0358 33.7861 37.2876 33.8465 38.4278 33.4452C39.5679 33.0439 40.506 32.2127 41.0415 31.1291C41.3296 30.5463 41.4917 29.9094 41.5173 29.2598C41.5429 28.6102 41.4314 27.9625 41.1902 27.3589C40.9489 26.7552 40.5832 26.2091 40.117 25.7561C39.6507 25.3032 39.0942 24.9534 38.4839 24.7297L26.5702 20.6056L31.7324 17.5921Z" fill="#93C9F5"/>
<path d="M16.9006 125.819L13.9664 126.58L9.63582 115.624L13.9666 114.501L16.9006 125.819Z" fill="#A0616A"/>
<path d="M17.7976 128.854L8.77448 131.193L8.74489 131.079C8.50344 130.147 8.64186 129.158 9.1297 128.329C9.61754 127.499 10.4149 126.898 11.3463 126.656L11.3465 126.656L12.6704 124.978L16.0698 125.432L16.8575 125.227L17.7976 128.854Z" fill="#2F2E41"/>
<path d="M69.7131 100.045H51.4186C50.9283 100.044 50.4583 99.849 50.1116 99.5023C49.7649 99.1556 49.5699 98.6856 49.5693 98.1953V81.4567C49.5699 80.9664 49.7649 80.4964 50.1116 80.1497C50.4583 79.803 50.9283 79.608 51.4186 79.6074H69.7131C70.2034 79.608 70.6734 79.803 71.0201 80.1497C71.3668 80.4964 71.5618 80.9664 71.5624 81.4567V98.1953C71.5618 98.6856 71.3668 99.1556 71.0201 99.5023C70.6734 99.849 70.2034 100.044 69.7131 100.045Z" fill="#3F3D56"/>
<path d="M68.4273 98.5035H52.7047C52.2694 98.503 51.852 98.3299 51.5442 98.0221C51.2364 97.7142 51.0632 97.2969 51.0627 96.8616V82.7909C51.0632 82.3556 51.2364 81.9382 51.5442 81.6304C51.852 81.3226 52.2694 81.1494 52.7047 81.1489H68.4273C68.8626 81.1494 69.28 81.3226 69.5878 81.6304C69.8956 81.9382 70.0688 82.3556 70.0693 82.7909V96.8616C70.0688 97.2969 69.8956 97.7142 69.5878 98.0221C69.28 98.3299 68.8626 98.503 68.4273 98.5035Z" fill="white"/>
<path d="M66.8587 85.2452H54.273C54.1641 85.2452 54.0598 85.202 53.9828 85.125C53.9058 85.048 53.8625 84.9436 53.8625 84.8348C53.8625 84.7259 53.9058 84.6215 53.9828 84.5445C54.0598 84.4676 54.1641 84.4243 54.273 84.4243H66.8587C66.9676 84.4243 67.072 84.4676 67.1489 84.5445C67.2259 84.6215 67.2692 84.7259 67.2692 84.8348C67.2692 84.9436 67.2259 85.048 67.1489 85.125C67.072 85.202 66.9676 85.2452 66.8587 85.2452Z" fill="#93C9F5"/>
<path d="M66.8587 86.8673H54.273C54.1642 86.8673 54.0597 86.8241 53.9828 86.7471C53.9058 86.6701 53.8625 86.5657 53.8625 86.4569C53.8625 86.348 53.9058 86.2436 53.9828 86.1666C54.0597 86.0896 54.1642 86.0464 54.273 86.0464H66.8587C66.9676 86.0464 67.072 86.0896 67.149 86.1666C67.2259 86.2436 67.2692 86.348 67.2692 86.4569C67.2692 86.5657 67.2259 86.6701 67.149 86.7471C67.072 86.8241 66.9676 86.8673 66.8587 86.8673Z" fill="#93C9F5"/>
<path d="M59.7286 88.4889H54.273C54.1642 88.4889 54.0597 88.4457 53.9828 88.3687C53.9058 88.2917 53.8625 88.1873 53.8625 88.0784C53.8625 87.9696 53.9058 87.8652 53.9828 87.7882C54.0597 87.7112 54.1642 87.668 54.273 87.668H59.7286C59.8375 87.668 59.9419 87.7112 60.0189 87.7882C60.0959 87.8652 60.1391 87.9696 60.1391 88.0784C60.1391 88.1873 60.0959 88.2917 60.0189 88.3687C59.9419 88.4457 59.8375 88.4889 59.7286 88.4889Z" fill="#93C9F5"/>
<path d="M66.8587 91.8859H54.273C54.1641 91.8859 54.0598 91.8426 53.9828 91.7656C53.9058 91.6887 53.8625 91.5843 53.8625 91.4754C53.8625 91.3665 53.9058 91.2621 53.9828 91.1852C54.0598 91.1082 54.1641 91.0649 54.273 91.0649H66.8587C66.9676 91.0649 67.072 91.1082 67.1489 91.1852C67.2259 91.2621 67.2692 91.3665 67.2692 91.4754C67.2692 91.5843 67.2259 91.6887 67.1489 91.7656C67.072 91.8426 66.9676 91.8859 66.8587 91.8859Z" fill="#E4E4E4"/>
<path d="M66.8587 93.508H54.273C54.219 93.5081 54.1655 93.4976 54.1156 93.477C54.0657 93.4564 54.0204 93.4262 53.9821 93.3881C53.9439 93.35 53.9136 93.3047 53.8929 93.2548C53.8722 93.2049 53.8616 93.1515 53.8616 93.0975C53.8616 93.0435 53.8722 92.99 53.8929 92.9402C53.9136 92.8903 53.9439 92.845 53.9821 92.8069C54.0204 92.7688 54.0657 92.7385 54.1156 92.718C54.1655 92.6974 54.219 92.6869 54.273 92.687H66.8587C66.9676 92.687 67.072 92.7302 67.149 92.8072C67.2259 92.8842 67.2692 92.9886 67.2692 93.0975C67.2692 93.2064 67.2259 93.3108 67.149 93.3877C67.072 93.4647 66.9676 93.508 66.8587 93.508Z" fill="#E4E4E4"/>
<path d="M59.7286 95.1301H54.273C54.1642 95.1301 54.0597 95.0868 53.9828 95.0098C53.9058 94.9328 53.8625 94.8284 53.8625 94.7196C53.8625 94.6107 53.9058 94.5063 53.9828 94.4293C54.0597 94.3523 54.1642 94.3091 54.273 94.3091H59.7286C59.8375 94.3091 59.9419 94.3523 60.0189 94.4293C60.0959 94.5063 60.1391 94.6107 60.1391 94.7196C60.1391 94.8284 60.0959 94.9328 60.0189 95.0098C59.9419 95.0868 59.8375 95.1301 59.7286 95.1301Z" fill="#E4E4E4"/>
<path d="M99.2035 55.332H84.2623C84.0509 55.3324 83.8483 55.4166 83.6991 55.5662C83.5498 55.7159 83.4661 55.9187 83.4663 56.1301V79.7328H100.002V56.1301C100.002 56.0253 99.981 55.9215 99.9409 55.8246C99.9008 55.7278 99.842 55.6398 99.7679 55.5656C99.6938 55.4915 99.6058 55.4328 99.5089 55.3927C99.4121 55.3526 99.3083 55.332 99.2035 55.332ZM91.7831 68.7428C91.3159 68.7406 90.8684 68.554 90.538 68.2236C90.2076 67.8932 90.021 67.4457 90.0188 66.9785V64.2561C90.0194 63.7886 90.2055 63.3403 90.5363 63.0099C90.8671 62.6794 91.3156 62.4938 91.7831 62.4938C92.2507 62.4938 92.6992 62.6794 93.03 63.0099C93.3608 63.3403 93.5469 63.7886 93.5475 64.2561V66.9785C93.5453 67.4457 93.3587 67.8932 93.0283 68.2236C92.6979 68.554 92.2504 68.7406 91.7831 68.7428Z" fill="#2F2E41"/>
<path d="M83.415 78.9775V81.2547C83.4153 81.3727 83.4623 81.4858 83.5457 81.5693C83.6291 81.6527 83.7422 81.6997 83.8602 81.6999H99.6076C99.7255 81.6993 99.8384 81.6522 99.9218 81.5689C100.005 81.4855 100.052 81.3726 100.053 81.2547V78.9775H83.415Z" fill="#3F3D56"/>
<path d="M123.945 18.4971L60.0768 18.4971C59.5281 18.4979 59.0021 18.7163 58.6141 19.1043C58.2261 19.4923 58.0077 20.0183 58.0068 20.567L58.0068 63.6653C58.0074 64.2141 58.2256 64.7403 58.6137 65.1284C59.0018 65.5165 59.528 65.7347 60.0768 65.7352H123.945C124.493 65.7347 125.02 65.5165 125.408 65.1284C125.796 64.7403 126.014 64.2141 126.015 63.6653V20.567C126.014 20.0183 125.795 19.4923 125.407 19.1043C125.019 18.7163 124.493 18.4979 123.945 18.4971Z" fill="#3F3D56"/>
<path d="M123.411 19.9922L60.6104 19.9922C60.3166 19.9928 60.0351 20.11 59.8275 20.3179C59.62 20.5259 59.5034 20.8077 59.5034 21.1015L59.5034 63.1315C59.5039 63.425 59.6207 63.7062 59.8282 63.9137C60.0357 64.1212 60.317 64.238 60.6104 64.2385H123.411C123.705 64.238 123.986 64.1212 124.194 63.9137C124.401 63.7062 124.518 63.425 124.519 63.1315V21.1015C124.518 20.8077 124.402 20.5259 124.194 20.3179C123.987 20.11 123.705 19.9928 123.411 19.9922Z" fill="white"/>
<path d="M111.179 82.4923H73.8157C73.7135 82.4924 73.6125 82.4695 73.5201 82.4255C73.4278 82.3816 73.3465 82.3175 73.282 82.2381C73.2176 82.1587 73.1717 82.0659 73.1476 81.9665C73.1236 81.8671 73.1221 81.7635 73.1432 81.6635L73.7229 78.91C73.7559 78.7559 73.8406 78.6178 73.9629 78.5185C74.0852 78.4193 74.2378 78.3648 74.3954 78.3643H110.599C110.757 78.3648 110.909 78.4193 111.032 78.5185C111.154 78.6178 111.239 78.7559 111.272 78.91L111.852 81.6635C111.873 81.7635 111.871 81.867 111.847 81.9665C111.823 82.0659 111.777 82.1587 111.713 82.2381C111.648 82.3175 111.567 82.3816 111.475 82.4255C111.382 82.4695 111.281 82.4923 111.179 82.4923Z" fill="#2F2E41"/>
<path d="M75.699 78.8604H74.773C74.7109 78.8604 74.6606 78.9107 74.6606 78.9727V79.4384C74.6606 79.5005 74.7109 79.5508 74.773 79.5508H75.699C75.7611 79.5508 75.8114 79.5005 75.8114 79.4384V78.9727C75.8114 78.9107 75.7611 78.8604 75.699 78.8604Z" fill="#3F3D56"/>
<path d="M78.0006 78.8604H77.0745C77.0125 78.8604 76.9622 78.9107 76.9622 78.9727V79.4384C76.9622 79.5005 77.0125 79.5508 77.0745 79.5508H78.0006C78.0626 79.5508 78.1129 79.5005 78.1129 79.4384V78.9727C78.1129 78.9107 78.0626 78.8604 78.0006 78.8604Z" fill="#3F3D56"/>
<path d="M80.3021 78.8604H79.376C79.314 78.8604 79.2637 78.9107 79.2637 78.9727V79.4384C79.2637 79.5005 79.314 79.5508 79.376 79.5508H80.3021C80.3641 79.5508 80.4144 79.5005 80.4144 79.4384V78.9727C80.4144 78.9107 80.3641 78.8604 80.3021 78.8604Z" fill="#3F3D56"/>
<path d="M82.6036 78.8604H81.6775C81.6155 78.8604 81.5652 78.9107 81.5652 78.9727V79.4384C81.5652 79.5005 81.6155 79.5508 81.6775 79.5508H82.6036C82.6656 79.5508 82.7159 79.5005 82.7159 79.4384V78.9727C82.7159 78.9107 82.6656 78.8604 82.6036 78.8604Z" fill="#3F3D56"/>
<path d="M84.9051 78.8604H83.9791C83.917 78.8604 83.8667 78.9107 83.8667 78.9727V79.4384C83.8667 79.5005 83.917 79.5508 83.9791 79.5508H84.9051C84.9671 79.5508 85.0174 79.5005 85.0174 79.4384V78.9727C85.0174 78.9107 84.9671 78.8604 84.9051 78.8604Z" fill="#3F3D56"/>
<path d="M87.2066 78.8604H86.2806C86.2185 78.8604 86.1682 78.9107 86.1682 78.9727V79.4384C86.1682 79.5005 86.2185 79.5508 86.2806 79.5508H87.2066C87.2687 79.5508 87.319 79.5005 87.319 79.4384V78.9727C87.319 78.9107 87.2687 78.8604 87.2066 78.8604Z" fill="#3F3D56"/>
<path d="M89.5081 78.8604H88.5821C88.52 78.8604 88.4697 78.9107 88.4697 78.9727V79.4384C88.4697 79.5005 88.52 79.5508 88.5821 79.5508H89.5081C89.5702 79.5508 89.6205 79.5005 89.6205 79.4384V78.9727C89.6205 78.9107 89.5702 78.8604 89.5081 78.8604Z" fill="#3F3D56"/>
<path d="M91.8096 78.8604H90.8836C90.8215 78.8604 90.7712 78.9107 90.7712 78.9727V79.4384C90.7712 79.5005 90.8215 79.5508 90.8836 79.5508H91.8096C91.8717 79.5508 91.922 79.5005 91.922 79.4384V78.9727C91.922 78.9107 91.8717 78.8604 91.8096 78.8604Z" fill="#3F3D56"/>
<path d="M94.1111 78.8604H93.1851C93.1231 78.8604 93.0728 78.9107 93.0728 78.9727V79.4384C93.0728 79.5005 93.1231 79.5508 93.1851 79.5508H94.1111C94.1732 79.5508 94.2235 79.5005 94.2235 79.4384V78.9727C94.2235 78.9107 94.1732 78.8604 94.1111 78.8604Z" fill="#3F3D56"/>
<path d="M96.4127 78.8604H95.4866C95.4246 78.8604 95.3743 78.9107 95.3743 78.9727V79.4384C95.3743 79.5005 95.4246 79.5508 95.4866 79.5508H96.4127C96.4747 79.5508 96.525 79.5005 96.525 79.4384V78.9727C96.525 78.9107 96.4747 78.8604 96.4127 78.8604Z" fill="#3F3D56"/>
<path d="M98.7142 78.8604H97.7881C97.7261 78.8604 97.6758 78.9107 97.6758 78.9727V79.4384C97.6758 79.5005 97.7261 79.5508 97.7881 79.5508H98.7142C98.7762 79.5508 98.8265 79.5005 98.8265 79.4384V78.9727C98.8265 78.9107 98.7762 78.8604 98.7142 78.8604Z" fill="#3F3D56"/>
<path d="M101.016 78.8604H100.09C100.028 78.8604 99.9773 78.9107 99.9773 78.9727V79.4384C99.9773 79.5005 100.028 79.5508 100.09 79.5508H101.016C101.078 79.5508 101.128 79.5005 101.128 79.4384V78.9727C101.128 78.9107 101.078 78.8604 101.016 78.8604Z" fill="#3F3D56"/>
<path d="M103.317 78.8604H102.391C102.329 78.8604 102.279 78.9107 102.279 78.9727V79.4384C102.279 79.5005 102.329 79.5508 102.391 79.5508H103.317C103.379 79.5508 103.43 79.5005 103.43 79.4384V78.9727C103.43 78.9107 103.379 78.8604 103.317 78.8604Z" fill="#3F3D56"/>
<path d="M105.619 78.8604H104.693C104.631 78.8604 104.58 78.9107 104.58 78.9727V79.4384C104.58 79.5005 104.631 79.5508 104.693 79.5508H105.619C105.681 79.5508 105.731 79.5005 105.731 79.4384V78.9727C105.731 78.9107 105.681 78.8604 105.619 78.8604Z" fill="#3F3D56"/>
<path d="M107.92 78.8604H106.994C106.932 78.8604 106.882 78.9107 106.882 78.9727V79.4384C106.882 79.5005 106.932 79.5508 106.994 79.5508H107.92C107.982 79.5508 108.033 79.5005 108.033 79.4384V78.9727C108.033 78.9107 107.982 78.8604 107.92 78.8604Z" fill="#3F3D56"/>
<path d="M110.222 78.8604H109.296C109.234 78.8604 109.183 78.9107 109.183 78.9727V79.4384C109.183 79.5005 109.234 79.5508 109.296 79.5508H110.222C110.284 79.5508 110.334 79.5005 110.334 79.4384V78.9727C110.334 78.9107 110.284 78.8604 110.222 78.8604Z" fill="#3F3D56"/>
<path d="M75.6719 80.0107H74.7459C74.6838 80.0107 74.6335 80.061 74.6335 80.1231V80.5888C74.6335 80.6509 74.6838 80.7012 74.7459 80.7012H75.6719C75.734 80.7012 75.7843 80.6509 75.7843 80.5888V80.1231C75.7843 80.061 75.734 80.0107 75.6719 80.0107Z" fill="#3F3D56"/>
<path d="M77.9735 80.0107H77.0474C76.9854 80.0107 76.9351 80.061 76.9351 80.1231V80.5888C76.9351 80.6509 76.9854 80.7012 77.0474 80.7012H77.9735C78.0355 80.7012 78.0858 80.6509 78.0858 80.5888V80.1231C78.0858 80.061 78.0355 80.0107 77.9735 80.0107Z" fill="#3F3D56"/>
<path d="M80.275 80.0107H79.3489C79.2869 80.0107 79.2366 80.061 79.2366 80.1231V80.5888C79.2366 80.6509 79.2869 80.7012 79.3489 80.7012H80.275C80.337 80.7012 80.3873 80.6509 80.3873 80.5888V80.1231C80.3873 80.061 80.337 80.0107 80.275 80.0107Z" fill="#3F3D56"/>
<path d="M82.5765 80.0107H81.6504C81.5884 80.0107 81.5381 80.061 81.5381 80.1231V80.5888C81.5381 80.6509 81.5884 80.7012 81.6504 80.7012H82.5765C82.6385 80.7012 82.6888 80.6509 82.6888 80.5888V80.1231C82.6888 80.061 82.6385 80.0107 82.5765 80.0107Z" fill="#3F3D56"/>
<path d="M84.878 80.0107H83.952C83.8899 80.0107 83.8396 80.061 83.8396 80.1231V80.5888C83.8396 80.6509 83.8899 80.7012 83.952 80.7012H84.878C84.94 80.7012 84.9903 80.6509 84.9903 80.5888V80.1231C84.9903 80.061 84.94 80.0107 84.878 80.0107Z" fill="#3F3D56"/>
<path d="M87.1795 80.0107H86.2535C86.1914 80.0107 86.1411 80.061 86.1411 80.1231V80.5888C86.1411 80.6509 86.1914 80.7012 86.2535 80.7012H87.1795C87.2416 80.7012 87.2919 80.6509 87.2919 80.5888V80.1231C87.2919 80.061 87.2416 80.0107 87.1795 80.0107Z" fill="#3F3D56"/>
<path d="M89.481 80.0107H88.555C88.4929 80.0107 88.4426 80.061 88.4426 80.1231V80.5888C88.4426 80.6509 88.4929 80.7012 88.555 80.7012H89.481C89.5431 80.7012 89.5934 80.6509 89.5934 80.5888V80.1231C89.5934 80.061 89.5431 80.0107 89.481 80.0107Z" fill="#3F3D56"/>
<path d="M91.7825 80.0107H90.8565C90.7944 80.0107 90.7441 80.061 90.7441 80.1231V80.5888C90.7441 80.6509 90.7944 80.7012 90.8565 80.7012H91.7825C91.8446 80.7012 91.8949 80.6509 91.8949 80.5888V80.1231C91.8949 80.061 91.8446 80.0107 91.7825 80.0107Z" fill="#3F3D56"/>
<path d="M94.084 80.0107H93.158C93.096 80.0107 93.0457 80.061 93.0457 80.1231V80.5888C93.0457 80.6509 93.096 80.7012 93.158 80.7012H94.084C94.1461 80.7012 94.1964 80.6509 94.1964 80.5888V80.1231C94.1964 80.061 94.1461 80.0107 94.084 80.0107Z" fill="#3F3D56"/>
<path d="M96.3856 80.0107H95.4595C95.3975 80.0107 95.3472 80.061 95.3472 80.1231V80.5888C95.3472 80.6509 95.3975 80.7012 95.4595 80.7012H96.3856C96.4476 80.7012 96.4979 80.6509 96.4979 80.5888V80.1231C96.4979 80.061 96.4476 80.0107 96.3856 80.0107Z" fill="#3F3D56"/>
<path d="M98.6868 80.0107H97.7608C97.6987 80.0107 97.6484 80.061 97.6484 80.1231V80.5888C97.6484 80.6509 97.6987 80.7012 97.7608 80.7012H98.6868C98.7489 80.7012 98.7992 80.6509 98.7992 80.5888V80.1231C98.7992 80.061 98.7489 80.0107 98.6868 80.0107Z" fill="#3F3D56"/>
<path d="M100.988 80.0107H100.062C100 80.0107 99.95 80.061 99.95 80.1231V80.5888C99.95 80.6509 100 80.7012 100.062 80.7012H100.988C101.05 80.7012 101.101 80.6509 101.101 80.5888V80.1231C101.101 80.061 101.05 80.0107 100.988 80.0107Z" fill="#3F3D56"/>
<path d="M103.29 80.0107H102.364C102.302 80.0107 102.251 80.061 102.251 80.1231V80.5888C102.251 80.6509 102.302 80.7012 102.364 80.7012H103.29C103.352 80.7012 103.402 80.6509 103.402 80.5888V80.1231C103.402 80.061 103.352 80.0107 103.29 80.0107Z" fill="#3F3D56"/>
<path d="M105.591 80.0107H104.665C104.603 80.0107 104.553 80.061 104.553 80.1231V80.5888C104.553 80.6509 104.603 80.7012 104.665 80.7012H105.591C105.653 80.7012 105.704 80.6509 105.704 80.5888V80.1231C105.704 80.061 105.653 80.0107 105.591 80.0107Z" fill="#3F3D56"/>
<path d="M107.893 80.0107H106.967C106.905 80.0107 106.854 80.061 106.854 80.1231V80.5888C106.854 80.6509 106.905 80.7012 106.967 80.7012H107.893C107.955 80.7012 108.005 80.6509 108.005 80.5888V80.1231C108.005 80.061 107.955 80.0107 107.893 80.0107Z" fill="#3F3D56"/>
<path d="M110.194 80.0107H109.268C109.206 80.0107 109.156 80.061 109.156 80.1231V80.5888C109.156 80.6509 109.206 80.7012 109.268 80.7012H110.194C110.256 80.7012 110.307 80.6509 110.307 80.5888V80.1231C110.307 80.061 110.256 80.0107 110.194 80.0107Z" fill="#3F3D56"/>
<path d="M94.7743 81.3921H85.793C85.731 81.3921 85.6807 81.4424 85.6807 81.5044V81.9702C85.6807 82.0322 85.731 82.0825 85.793 82.0825H94.7743C94.8364 82.0825 94.8867 82.0322 94.8867 81.9702V81.5044C94.8867 81.4424 94.8364 81.3921 94.7743 81.3921Z" fill="#3F3D56"/>
<path d="M120.255 25.7833L61.492 25.7833C61.4309 25.7819 61.3728 25.7567 61.3301 25.713C61.2874 25.6694 61.2634 25.6107 61.2634 25.5496C61.2634 25.4885 61.2874 25.4298 61.3301 25.3862C61.3728 25.3425 61.4309 25.3173 61.492 25.3159L120.255 25.3159C120.316 25.3173 120.374 25.3425 120.417 25.3862C120.459 25.4298 120.483 25.4885 120.483 25.5496C120.483 25.6107 120.459 25.6694 120.417 25.713C120.374 25.7567 120.316 25.7819 120.255 25.7833Z" fill="#CACACA"/>
<path d="M65.4921 24.1228C66.2484 24.1228 66.8615 23.496 66.8615 22.7228C66.8615 21.9496 66.2484 21.3228 65.4921 21.3228C64.7357 21.3228 64.1226 21.9496 64.1226 22.7228C64.1226 23.496 64.7357 24.1228 65.4921 24.1228Z" fill="#3F3D56"/>
<path d="M70.223 24.1228C70.9794 24.1228 71.5925 23.496 71.5925 22.7228C71.5925 21.9496 70.9794 21.3228 70.223 21.3228C69.4667 21.3228 68.8535 21.9496 68.8535 22.7228C68.8535 23.496 69.4667 24.1228 70.223 24.1228Z" fill="#3F3D56"/>
<path d="M74.954 24.1228C75.7103 24.1228 76.3235 23.496 76.3235 22.7228C76.3235 21.9496 75.7103 21.3228 74.954 21.3228C74.1976 21.3228 73.5845 21.9496 73.5845 22.7228C73.5845 23.496 74.1976 24.1228 74.954 24.1228Z" fill="#3F3D56"/>
<path d="M117.406 21.6699H114.046C113.979 21.6713 113.916 21.6986 113.869 21.7462C113.822 21.7938 113.796 21.8578 113.796 21.9244C113.796 21.991 113.822 22.055 113.869 22.1025C113.916 22.1501 113.979 22.1775 114.046 22.1788H117.406C117.473 22.1775 117.536 22.1501 117.583 22.1025C117.63 22.055 117.656 21.991 117.656 21.9244C117.656 21.8578 117.63 21.7938 117.583 21.7462C117.536 21.6986 117.473 21.6713 117.406 21.6699Z" fill="#3F3D56"/>
<path d="M117.406 22.625H114.046C113.979 22.6263 113.916 22.6537 113.869 22.7013C113.822 22.7489 113.796 22.8128 113.796 22.8795C113.796 22.9461 113.822 23.01 113.869 23.0576C113.916 23.1052 113.979 23.1326 114.046 23.1339H117.406C117.473 23.1326 117.536 23.1052 117.583 23.0576C117.63 23.01 117.656 22.9461 117.656 22.8795C117.656 22.8128 117.63 22.7489 117.583 22.7013C117.536 22.6537 117.473 22.6263 117.406 22.625Z" fill="#3F3D56"/>
<path d="M117.406 23.5786H114.046C113.979 23.5799 113.916 23.6073 113.869 23.6549C113.822 23.7025 113.796 23.7665 113.796 23.8331C113.796 23.8997 113.822 23.9637 113.869 24.0112C113.916 24.0588 113.979 24.0862 114.046 24.0875H117.406C117.473 24.0862 117.536 24.0588 117.583 24.0112C117.63 23.9637 117.656 23.8997 117.656 23.8331C117.656 23.7665 117.63 23.7025 117.583 23.6549C117.536 23.6073 117.473 23.5799 117.406 23.5786Z" fill="#3F3D56"/>
<path d="M95.6177 38.5146H88.275C87.7235 38.5146 87.2764 38.9617 87.2764 39.5133C87.2764 40.0648 87.7235 40.5119 88.275 40.5119H95.6177C96.1692 40.5119 96.6163 40.0648 96.6163 39.5133C96.6163 38.9617 96.1692 38.5146 95.6177 38.5146Z" fill="#93C9F5"/>
<path d="M100.361 42.5093H83.5316C82.9801 42.5093 82.533 42.9564 82.533 43.5079C82.533 44.0594 82.9801 44.5065 83.5316 44.5065H100.361C100.913 44.5065 101.36 44.0594 101.36 43.5079C101.36 42.9564 100.913 42.5093 100.361 42.5093Z" fill="#E6E6E6"/>
<path d="M100.361 46.5034H83.5316C82.9801 46.5034 82.533 46.9505 82.533 47.502C82.533 48.0536 82.9801 48.5007 83.5316 48.5007H100.361C100.913 48.5007 101.36 48.0536 101.36 47.502C101.36 46.9505 100.913 46.5034 100.361 46.5034Z" fill="#E6E6E6"/>
<path d="M67.4988 61.8293C67.5002 62.652 67.3537 63.4682 67.0661 64.239H60.6104C60.317 64.2385 60.0357 64.1217 59.8282 63.9142C59.6207 63.7067 59.5039 63.4254 59.5034 63.132V55.0123C59.8641 54.9539 60.2289 54.9247 60.5943 54.9248C61.5011 54.9247 62.3989 55.1033 63.2366 55.4503C64.0743 55.7972 64.8355 56.3058 65.4767 56.947C66.1178 57.5881 66.6264 58.3493 66.9734 59.187C67.3203 60.0247 67.4989 60.9226 67.4988 61.8293Z" fill="#E6E6E6"/>
<path d="M50.5633 61.6557C51.6446 64.2363 49.3966 73.576 47.0076 75.8664C46.6016 76.2559 46.3617 76.4778 46.3617 76.4778L45.2352 76.634L31.5922 78.5226C30.063 80.7213 24.0963 84.2275 19.108 86.9035C15.1373 89.0325 11.7839 90.6367 11.7839 90.6367C14.7974 100.357 16.4577 110.218 16.2308 120.275L11.0373 121.652L1.50036 88.97C1.29441 88.2643 1.30038 87.5136 1.51753 86.8112C1.73468 86.1088 2.15344 85.4857 2.72176 85.0193L31.4657 61.4311C31.4657 61.4311 33.1178 60.2754 37.7626 60.3596C45.4095 60.4985 49.7754 59.7787 50.5633 61.6557Z" fill="#2F2E41"/>
<path d="M38.8202 130.748L35.983 131.814L30.5184 121.378L34.7062 119.804L38.8202 130.748Z" fill="#A0616A"/>
<path d="M40.0334 133.67L31.3082 136.95L31.2667 136.84C30.9281 135.939 30.9612 134.941 31.3586 134.064C31.756 133.188 32.4853 132.506 33.3859 132.167L34.5253 130.358L37.9535 130.45L38.7152 130.163L40.0334 133.67Z" fill="#2F2E41"/>
<path d="M51.994 67.7932C52.8876 70.4447 49.9761 79.5993 47.4291 81.7126L46.7805 82.0474L46.5651 82.1284C44.6553 86.5445 28.4985 98.1785 28.4985 98.1785C32.6484 105.027 34.7749 113.086 35.6898 121.87L31.0849 123.355L18.0019 97.5668C17.6592 96.8913 17.529 96.1279 17.6285 95.3771C17.7279 94.6262 18.0523 93.9231 18.559 93.3601L26.203 84.8666L39.319 65.5832C46.9363 66.2697 51.3426 65.8646 51.994 67.7932Z" fill="#2F2E41"/>
<path d="M54.3918 69.2311C31.2863 65.7173 29.1812 62.5574 28.9552 62.6137L28.7546 62.6635L32.1021 57.0053L33.33 55.5549L32.3856 54.88L32.7603 52.0759C33.0526 50.94 33.2892 49.6022 33.1631 49.423C32.9027 49.1347 32.323 48.6105 32.3172 48.6053L32.2427 48.5379L33.1129 46.5075L34.2782 30.2742L37.2828 24.2843L43.4842 20.6079L48.9504 20.6741L53.754 25.1296C55.7934 26.1107 57.4522 27.7372 58.4731 29.757C59.4939 31.7767 59.8199 34.0769 59.4004 36.3008L56.9604 49.1888L56.0628 55.8316L57.5275 57.2962L56.6161 58.2075L56.0743 61.3108L56.6293 64.8254C57.0631 68.0188 55.1342 68.2092 54.9917 68.249C54.9832 68.2514 54.5642 69.3483 54.5465 69.3483C54.5022 69.3483 54.4984 69.2473 54.3918 69.2311Z" fill="#93C9F5"/>
<path d="M53.1787 82.0446C53.4425 81.7869 53.6467 81.4744 53.7767 81.1293C53.9067 80.7841 53.9595 80.4147 53.9313 80.0469C53.9031 79.6792 53.7946 79.3221 53.6135 79.0008C53.4323 78.6795 53.183 78.4018 52.8829 78.1873L55.4175 69.5874L50.9616 70.9481L49.2379 78.9061C48.911 79.4341 48.7891 80.0637 48.8953 80.6755C49.0015 81.2873 49.3285 81.8389 49.8143 82.2258C50.3 82.6126 50.9108 82.8078 51.5309 82.7745C52.151 82.7411 52.7373 82.4814 53.1787 82.0446Z" fill="#A0616A"/>
<path d="M53.5901 76.0771L48.7738 73.9167L52.6371 57.873L45.4423 40.4078C45.0867 39.5444 44.9255 38.6134 44.9702 37.6808C45.0148 36.7482 45.2643 35.8368 45.7007 35.0115C46.1372 34.1861 46.7501 33.4669 47.4957 32.905C48.2414 32.3431 49.1017 31.9523 50.0154 31.7602C51.6661 31.4152 53.3863 31.7391 54.7986 32.6608C56.2108 33.5826 57.1997 35.0269 57.5483 36.6769L61.924 57.4978L53.5901 76.0771Z" fill="#93C9F5"/>
<path d="M34.5729 14.7923L36.3334 7.47046C36.3939 7.22002 36.5513 7.0038 36.771 6.86926C36.9907 6.73472 37.2548 6.69283 37.5054 6.75279L39.1012 7.13649C39.3516 7.19699 39.5678 7.35437 39.7024 7.5741C39.8369 7.79383 39.8788 8.05795 39.8188 8.30852L38.0583 15.6304C37.9978 15.8809 37.8404 16.0971 37.6207 16.2316C37.401 16.3662 37.1369 16.408 36.8863 16.3481L35.2905 15.9644C35.0401 15.9039 34.8239 15.7465 34.6893 15.5268C34.5548 15.307 34.5129 15.0429 34.5729 14.7923Z" fill="#3F3D56"/>
<path d="M37.6023 7.17113C37.4673 7.13882 37.3249 7.1614 37.2065 7.2339C37.0881 7.30641 37.0033 7.42291 36.9707 7.55787L35.2102 14.8798C35.1779 15.0148 35.2005 15.1571 35.273 15.2755C35.3455 15.3939 35.462 15.4787 35.5969 15.5114L37.1927 15.895C37.3277 15.9274 37.4701 15.9048 37.5885 15.8323C37.7069 15.7598 37.7917 15.6433 37.8243 15.5083L39.5848 8.18642C39.6171 8.05139 39.5945 7.90906 39.522 7.79065C39.4495 7.67225 39.333 7.58743 39.1981 7.55482L37.6023 7.17113Z" fill="#93C9F5"/>
<path d="M44.9855 19.4095C49.3018 19.4095 52.8008 15.9104 52.8008 11.5941C52.8008 7.27785 49.3018 3.77881 44.9855 3.77881C40.6692 3.77881 37.1702 7.27785 37.1702 11.5941C37.1702 15.9104 40.6692 19.4095 44.9855 19.4095Z" fill="#A0616A"/>
<path d="M48.5905 16.8199L48.8719 15.2369C49.0449 14.1872 48.8651 13.1097 48.3608 12.173C47.8564 11.2362 47.0558 10.493 46.0842 10.0596L45.8428 9.94281L46.0417 9.8365C46.105 9.80268 46.1544 9.74779 46.1814 9.68134C46.2084 9.6149 46.2113 9.54109 46.1896 9.47274C46.1679 9.40438 46.1229 9.34578 46.0625 9.30711C46.0021 9.26844 45.9301 9.25213 45.8589 9.26101L45.633 9.28911C45.4791 9.30796 45.3229 9.28187 45.1835 9.21401C45.044 9.14614 44.9271 9.03939 44.8469 8.90661C44.7667 8.77384 44.7267 8.62071 44.7315 8.46567C44.7364 8.31064 44.786 8.16032 44.8744 8.03284C44.0941 8.35611 43.2617 8.53511 42.4175 8.56112C41.1959 8.55192 40.1345 7.95642 39.7134 7.04391C39.6109 6.81704 39.5478 6.57435 39.5269 6.32626C38.2364 6.83478 37.5406 8.35907 37.5334 8.37503L37.1519 9.2264L37.3151 8.30783C37.3201 8.27984 37.8196 5.49781 38.5438 3.7718C39.3224 1.91599 42.5639 0.937851 47.4332 1.0926C52.1894 1.24206 53.2445 6.66497 53.3351 7.18966C54.6863 8.48976 54.1953 10.9513 53.7797 12.3089C53.1067 14.5076 51.7786 16.6954 51.0468 16.8106C50.9813 16.8229 50.9136 16.8155 50.8523 16.7894C50.791 16.7633 50.7387 16.7196 50.7022 16.6639C50.6289 16.5474 50.5317 16.4478 50.4171 16.3717C50.3025 16.2956 50.173 16.2447 50.0372 16.2224C49.4459 16.1383 48.8356 16.6231 48.8295 16.6279L48.5905 16.8199Z" fill="#2F2E41"/>
</g>
<defs>
<clipPath id="clip0_232_466">
<rect width="128" height="139" fill="white" transform="translate(0.5 0.209961)"/>
</clipPath>
</defs>
</svg>
