<svg width="151" height="139" viewBox="0 0 151 139" fill="none" xmlns="http://www.w3.org/2000/svg">
<g clip-path="url(#clip0_227_229)">
<path d="M63.2756 45.7664C63.2756 45.7664 74.0848 47.0667 72.2615 38.5182C70.4383 29.9697 60.1003 14.1802 60.1003 14.1802L54.2338 17.471L60.969 33.3953L58.0696 35.6833L63.2756 45.7664Z" fill="#A0616A"/>
<path d="M27.8535 35.3591L29.3766 47.8895L67.5439 47.7026L59.8784 34.377L27.8535 35.3591Z" fill="#93C9F5"/>
<path d="M50.5352 14.8458C48.1995 11.583 48.0121 7.71596 50.1166 6.20866C52.2212 4.70136 55.8208 6.12454 58.1565 9.38743C60.4923 12.6503 60.6797 16.5173 58.5751 18.0246C56.4705 19.5319 52.871 18.1087 50.5352 14.8458Z" fill="#A0616A"/>
<path d="M31.5232 83.1318L31.5232 137.512H29.1798L29.1798 83.1318H31.5232Z" fill="#3F3D56"/>
<path d="M42.7715 83.1318V137.512H40.4281V83.1318H42.7715Z" fill="#3F3D56"/>
<path d="M68.0801 83.1318V137.512H65.7367V83.1318H68.0801Z" fill="#3F3D56"/>
<path d="M77.0479 83.1318V137.512H74.7045V83.1318H77.0479Z" fill="#3F3D56"/>
<path d="M33.6322 81.9597H78.8855L87.5664 94.2761L42.5371 96.9612L33.6322 81.9597Z" fill="#3F3D56"/>
<path d="M116.496 39.8206L116.29 30.8887L143.602 32.99L143.742 39.0424L116.496 39.8206Z" fill="#A0616A"/>
<path d="M134.98 31.9228L136.287 35.0663L138.163 35.1262C138.163 35.1262 135.966 35.799 135.356 39.7915L137.159 40.3319C137.159 40.3319 138.89 41.9474 142.126 41.7907L150.802 41.0647L150.835 38.0393L144.839 37.3461C144.839 37.3461 143.503 36.4669 150.117 32.8519C150.117 32.8519 152.308 31.5116 150.338 24.8933C150.067 23.9837 149.249 23.3303 148.3 23.3098C147.776 23.2985 147.286 23.4866 147.09 24.1371C146.591 25.7928 147.096 27.4434 145.726 28.4769C144.356 29.5104 134.98 31.9228 134.98 31.9228Z" fill="#2F2E41"/>
<path d="M37.0192 73.9682C37.0192 73.9682 46.4429 90 67.7666 87.1108C72.841 86.4232 77.3055 83.4055 79.849 78.9599C84.7651 70.3674 92.2301 55.3222 89.81 46.803L125.875 39.9181L128.716 31.1572L89.6851 26.0858C86.2326 25.6372 82.8507 27.3165 81.1207 30.3385L62.1076 63.5509L56.4396 64.17L37.0192 73.9682Z" fill="#2F2E41"/>
<path d="M115.784 43.4771L116.297 34.5576L143.352 38.85L143.004 44.894L115.784 43.4771Z" fill="#A0616A"/>
<path d="M134.844 37.0924L135.893 40.3308L137.758 40.5415C137.758 40.5415 135.514 41.0354 134.585 44.9658L136.338 45.6495C136.338 45.6495 137.934 47.399 141.172 47.5033L149.879 47.4779L150.155 44.4649L144.234 43.2914C144.234 43.2914 142.973 42.3075 149.856 39.2365C149.856 39.2365 152.148 38.0769 150.716 31.3215C150.519 30.393 149.757 29.676 148.813 29.5791C148.292 29.5257 147.788 29.6737 147.54 30.3063C146.91 31.9166 147.28 33.6024 145.831 34.5223C144.383 35.4423 134.844 37.0924 134.844 37.0924Z" fill="#2F2E41"/>
<path d="M33.8179 71.1182C33.8179 71.1182 41.9215 87.8564 63.4085 86.6925C68.5218 86.4155 73.2146 83.7668 76.1073 79.5404C81.6986 71.3713 90.3496 56.9757 88.6225 48.2893L125.124 44.3289L128.661 35.8251L90.1643 27.6292C86.7591 26.9042 83.2531 28.3059 81.2857 31.1789L59.6628 62.7537L53.9634 62.9146L33.8179 71.1182Z" fill="#2F2E41"/>
<path d="M58.5198 0.437256L60.3945 1.84364L50.5523 15.4387L48.6776 14.9699L58.5198 0.437256Z" fill="#3F3D56"/>
<path d="M32.9292 30.6268L22.1496 30.158L17.4628 51.2537C17.4628 51.2537 27.3051 88.2885 39.022 86.8821C39.022 86.8821 46.2865 81.491 46.2865 79.6158C46.2865 77.7406 56.1288 73.0527 56.1288 73.0527L58.4722 65.0832L51.442 54.3009C51.442 54.3009 48.6299 45.8626 39.2564 41.1746L32.9292 30.6268Z" fill="#93C9F5"/>
<path d="M27.3052 28.7514C20.3164 28.7514 14.6509 23.0845 14.6509 16.094C14.6509 9.10346 20.3164 3.43652 27.3052 3.43652C34.2939 3.43652 39.9595 9.10346 39.9595 16.094C39.9595 23.0845 34.2939 28.7514 27.3052 28.7514Z" fill="#A0616A"/>
<path d="M71.4272 32.2676L80.2656 35.7835L62.9245 58.7545L56.8317 54.0665L71.4272 32.2676Z" fill="#E6E6E6"/>
<path d="M36.9132 76.3344C36.9132 76.3344 40.1939 86.718 47.2241 81.5262C54.2542 76.3344 64.3604 60.3954 64.3604 60.3954L58.941 56.4106L47.2241 69.1235L43.9433 67.4273L36.9132 76.3344Z" fill="#A0616A"/>
<path d="M31.7577 39.7683L20.9782 46.3314L36.9132 81.0222L47.2241 66.9584L31.7577 39.7683Z" fill="#93C9F5"/>
<path d="M60.2298 60.5937C57.9882 59.2992 57.7972 55.4323 59.8032 51.9569C61.8093 48.4815 65.2527 46.7135 67.4944 48.0081C69.736 49.3026 69.927 53.1694 67.921 56.6449C65.9149 60.1203 62.4715 61.8883 60.2298 60.5937Z" fill="#A0616A"/>
<path d="M25.9211 54.4172C22.6736 43.7676 19.1883 40.3974 15.524 42.5075C12.735 44.1135 11.8955 47.7693 13.53 50.5422C17.6964 57.6103 26.2814 73.8048 24.493 84.5382C24.493 84.5382 21.6809 99.5396 44.1774 99.5396C66.674 99.5396 88.2332 94.3829 88.2332 94.3829L76.5162 92.5077L49.8705 94.4115C43.7826 94.8464 38.6517 89.6361 39.465 83.5856C39.4918 83.3859 39.5236 83.184 39.5608 82.9798C40.8967 75.6311 25.9211 54.4172 25.9211 54.4172Z" fill="#3F3D56"/>
<path d="M32.0476 10.8469C33.0814 13.7421 30.8099 16.7484 27.7432 16.5439L27.6702 16.539C25.6087 19.1165 25.5518 22.7626 27.5318 25.4033C27.6944 28.8068 27.1614 32.2077 25.9653 35.3982L22.6046 44.3622L17.4309 41.9472L14.9757 48.5022L0.530178 41.0587L9.28502 21.3554L11.9568 10.6658C13.8576 3.06064 21.6133 -1.51703 29.1879 0.495468L34.9993 2.0395C39.5904 3.25932 42.233 8.06736 40.8025 12.5983L32.0476 10.8469Z" fill="#2F2E41"/>
</g>
<defs>
<clipPath id="clip0_227_229">
<rect width="150.906" height="138" fill="white" transform="matrix(-1 0 0 1 150.937 0.0942383)"/>
</clipPath>
</defs>
</svg>
