<svg width="164" height="139" viewBox="0 0 164 139" fill="none" xmlns="http://www.w3.org/2000/svg">
<g clip-path="url(#clip0_232_439)">
<path d="M131.609 36.8882L128.828 25.9535L124.918 10.5792L124.696 9.71134V9.70921L123.15 3.62987C122.896 2.6346 122.257 1.78089 121.374 1.25601C120.491 0.731132 119.435 0.577958 118.44 0.830094L108.166 3.44223L43.9736 19.7696C42.9783 20.024 42.1246 20.6628 41.5997 21.5459C41.0749 22.429 40.9217 23.4842 41.1738 24.48L43.3894 33.1928L49.0188 55.3245L51.1362 63.6513L51.2449 64.0778H51.7141L51.6053 63.6513L49.5817 55.6891V55.687L43.7093 32.6021L41.6152 24.3691C41.3928 23.4901 41.528 22.5586 41.9913 21.7792C42.4546 20.9997 43.2082 20.4357 44.0867 20.211L108.145 3.91775L118.551 1.2715C119.43 1.04904 120.361 1.18429 121.14 1.64759C121.92 2.11088 122.484 2.8644 122.709 3.7429L124.35 10.1954L124.572 11.0718L128.372 26.0132L131.138 36.8882L131.253 37.3445H131.726L131.609 36.8882Z" fill="#CCCCCC"/>
<path d="M62.5256 52.0756C68.5973 52.0756 73.5195 47.1535 73.5195 41.0818C73.5195 35.01 68.5973 30.0879 62.5256 30.0879C56.4539 30.0879 51.5317 35.01 51.5317 41.0818C51.5317 47.1535 56.4539 52.0756 62.5256 52.0756Z" fill="#F2F2F2"/>
<path d="M87.465 36.8882L87.9918 37.3445H79.6201C78.7133 37.3455 77.8439 37.7062 77.2027 38.3474C76.5615 38.9886 76.2008 39.858 76.1998 40.7648V66.8563L76.0783 73.0337L70.7283 68.2487L70.2272 68.3766L66.261 64.8774C65.6771 64.3616 64.9248 64.0772 64.1457 64.0778H53.71L53.8699 63.6513L55.9553 58.0795L67.7792 26.4674L68.9947 23.2198C69.0694 23.0202 69.1913 22.8416 69.35 22.6993C69.5087 22.557 69.6995 22.4552 69.906 22.4026C70.1126 22.3501 70.3288 22.3482 70.5362 22.3973C70.7436 22.4464 70.9361 22.545 71.0972 22.6846L79.053 29.587L83.7356 33.6513L87.465 36.8882Z" fill="#E6E6E6"/>
<path d="M122.274 36.8879L122.803 37.3442H97.1846L97.3573 36.8879L102.814 22.4839C102.889 22.2849 103.011 22.107 103.169 21.9652C103.327 21.8234 103.518 21.7219 103.724 21.6694C103.93 21.6169 104.145 21.6148 104.352 21.6634C104.559 21.712 104.751 21.8099 104.912 21.9486L115.759 31.2841L116.384 31.8193L122.274 36.8879Z" fill="#E6E6E6"/>
<path d="M132.205 41.3638C131.205 41.363 130.22 41.5942 129.325 42.0391C128.43 42.484 127.651 43.1304 127.049 43.9276C126.402 43.6493 125.696 43.536 124.995 43.5978C124.294 43.6595 123.619 43.8945 123.031 44.2815C122.443 44.6685 121.96 45.1955 121.626 45.8152C121.292 46.4348 121.117 47.1278 121.117 47.8317H138.673C138.673 46.9823 138.505 46.1413 138.18 45.3565C137.855 44.5718 137.379 43.8588 136.778 43.2582C136.178 42.6576 135.465 42.1812 134.68 41.8561C133.895 41.5311 133.054 41.3638 132.205 41.3638Z" fill="#E6E6E6"/>
<path d="M156.455 36.8882L79.6202 36.8882C78.7557 36.8897 77.9164 37.1795 77.2351 37.7117C76.5538 38.2439 76.0695 38.9881 75.8588 39.8266V39.8287C75.7824 40.1349 75.7437 40.4492 75.7437 40.7648V73.2405L75.9931 73.4601L76.1999 73.6435V40.7648C76.2009 39.858 76.5616 38.9886 77.2028 38.3474C77.844 37.7062 78.7134 37.3455 79.6202 37.3445L156.455 37.3445C157.362 37.3451 158.232 37.7057 158.873 38.347C159.514 38.9883 159.875 39.8579 159.876 40.7648V80.2837H160.093C160.173 80.2829 160.252 80.2865 160.332 80.2943V40.7648C160.33 39.7371 159.921 38.7519 159.195 38.0253C158.468 37.2986 157.483 36.8897 156.455 36.8882Z" fill="#3F3D56"/>
<path d="M93.7445 66.6808C99.497 66.6808 104.16 62.0175 104.16 56.265C104.16 50.5125 99.497 45.8491 93.7445 45.8491C87.9919 45.8491 83.3286 50.5125 83.3286 56.265C83.3286 62.0175 87.9919 66.6808 93.7445 66.6808Z" fill="#93C9F5"/>
<path d="M156.541 80.2833H85.1006C84.2178 80.2807 83.3657 79.9588 82.7017 79.3771L81.0981 77.9633L81.3434 77.6094L81.7869 76.9696L101.042 49.2469L103.019 46.4003C103.14 46.225 103.303 46.0819 103.492 45.983C103.681 45.8842 103.891 45.8325 104.104 45.8325C104.317 45.8325 104.528 45.8842 104.717 45.983C104.906 46.0819 105.068 46.225 105.189 46.4003L111.198 55.0512V55.0533L114.734 60.1433L123.174 72.2934L135.974 54.0213C136.096 53.847 136.258 53.7046 136.447 53.6063C136.635 53.5081 136.845 53.4567 137.057 53.4567C137.27 53.4567 137.48 53.5081 137.668 53.6063C137.857 53.7046 138.019 53.847 138.141 54.0213L146.352 65.7407L146.824 66.4145L156.242 79.8568L156.541 80.2833Z" fill="#3F3D56"/>
<path d="M118.381 52.1636C117.148 52.1627 115.932 52.4479 114.828 52.9968C113.724 53.5456 112.763 54.3432 112.019 55.3267C111.221 54.9834 110.351 54.8436 109.486 54.9198C108.62 54.996 107.788 55.2859 107.062 55.7634C106.337 56.2409 105.741 56.8911 105.329 57.6556C104.917 58.4201 104.701 59.275 104.701 60.1435H126.361C126.361 59.0956 126.154 58.0579 125.753 57.0897C125.352 56.1216 124.764 55.2419 124.023 54.5008C123.282 53.7598 122.403 53.172 121.434 52.771C120.466 52.37 119.429 52.1636 118.381 52.1636Z" fill="#CCCCCC"/>
<path d="M81.0834 77.3794L78.4307 75.0424L78.4243 75.0381L78.4157 75.0317L78.4094 75.0253C78.3262 74.9656 78.243 74.9038 78.162 74.8398C78.1407 74.8249 78.1215 74.81 78.1024 74.795C78.0916 74.7865 78.0831 74.7801 78.0725 74.7716C78.0682 74.7694 78.066 74.7652 78.0617 74.7631C78.0021 74.7161 77.9402 74.6671 77.8806 74.618C77.8507 74.5967 77.823 74.5733 77.7931 74.5498C77.7121 74.4837 77.6311 74.4155 77.55 74.3472C77.4647 74.2747 77.3795 74.2022 77.2942 74.1276C77.292 74.1255 77.2877 74.1233 77.2856 74.1212C77.2686 74.1063 77.2536 74.0914 77.2366 74.0786C77.1555 74.0061 77.0745 73.9336 76.9935 73.8568C76.9253 73.795 76.857 73.731 76.7909 73.6692C76.729 73.6116 76.6672 73.554 76.6075 73.4922L76.5947 73.4794C76.5499 73.4367 76.5052 73.392 76.4583 73.345C76.4134 73.3024 76.3709 73.2576 76.3282 73.2128C76.2834 73.1702 76.2407 73.1254 76.2002 73.0806L76.1662 73.0465L76.1554 73.0358L75.744 72.6712V73.2406L75.9934 73.4602L76.2002 73.6436L80.5823 77.5074L80.9937 77.872L81.0983 77.9637L81.1964 77.8208L81.3435 77.6097L81.0834 77.3794ZM144.768 79.8572C144.775 79.998 144.785 80.1408 144.796 80.2837H159.876V79.8572H144.768ZM81.0834 77.3794L78.4307 75.0424L78.4243 75.0381L78.4157 75.0317L78.4094 75.0253C78.3262 74.9656 78.243 74.9038 78.162 74.8398C78.1407 74.8249 78.1215 74.81 78.1024 74.795C78.0916 74.7865 78.0831 74.7801 78.0725 74.7716C78.0682 74.7694 78.066 74.7652 78.0617 74.7631C78.0021 74.7161 77.9402 74.6671 77.8806 74.618C77.8507 74.5967 77.823 74.5733 77.7931 74.5498C77.7121 74.4837 77.6311 74.4155 77.55 74.3472C77.4647 74.2747 77.3795 74.2022 77.2942 74.1276C77.292 74.1255 77.2877 74.1233 77.2856 74.1212C77.2686 74.1063 77.2536 74.0914 77.2366 74.0786C77.1555 74.0061 77.0745 73.9336 76.9935 73.8568C76.9253 73.795 76.857 73.731 76.7909 73.6692C76.729 73.6116 76.6672 73.554 76.6075 73.4922L76.5947 73.4794C76.5499 73.4367 76.5052 73.392 76.4583 73.345C76.4134 73.3024 76.3709 73.2576 76.3282 73.2128C76.2834 73.1702 76.2407 73.1254 76.2002 73.0806L76.1662 73.0465L76.1554 73.0358L75.744 72.6712V73.2406L75.9934 73.4602L76.2002 73.6436L80.5823 77.5074L80.9937 77.872L81.0983 77.9637L81.1964 77.8208L81.3435 77.6097L81.0834 77.3794ZM156.242 79.8572H144.768C144.775 79.998 144.785 80.1408 144.796 80.2837H156.541L156.242 79.8572ZM81.0834 77.3794L78.4307 75.0424L78.4243 75.0381L78.4157 75.0317L78.4094 75.0253C78.3262 74.9656 78.243 74.9038 78.162 74.8398C78.1407 74.8249 78.1215 74.81 78.1024 74.795C78.0916 74.7865 78.0831 74.7801 78.0725 74.7716C78.0682 74.7694 78.066 74.7652 78.0617 74.7631C78.0021 74.7161 77.9402 74.6671 77.8806 74.618C77.8507 74.5967 77.823 74.5733 77.7931 74.5498C77.7121 74.4837 77.6311 74.4155 77.55 74.3472C77.4647 74.2747 77.3795 74.2022 77.2942 74.1276C77.292 74.1255 77.2877 74.1233 77.2856 74.1212C77.2686 74.1063 77.2536 74.0914 77.2366 74.0786C77.1555 74.0061 77.0745 73.9336 76.9935 73.8568C76.9253 73.795 76.857 73.731 76.7909 73.6692C76.729 73.6116 76.6672 73.554 76.6075 73.4922L76.5947 73.4794C76.5499 73.4367 76.5052 73.392 76.4583 73.345C76.4134 73.3024 76.3709 73.2576 76.3282 73.2128C76.2834 73.1702 76.2407 73.1254 76.2002 73.0806L76.1662 73.0465L76.1554 73.0358L75.744 72.6712V73.2406L75.9934 73.4602L76.2002 73.6436L80.5823 77.5074L80.9937 77.872L81.0983 77.9637L81.1964 77.8208L81.3435 77.6097L81.0834 77.3794ZM70.7287 68.2487L66.5429 64.5576C65.8812 63.9734 65.0288 63.6511 64.1461 63.6514H51.6057L51.7145 64.0778H64.1461C64.9251 64.0772 65.6775 64.3617 66.2613 64.8775L70.2275 68.3767L75.744 73.2406V72.6712L70.7287 68.2487ZM160.332 79.8658C160.253 79.8594 160.174 79.8572 160.093 79.8572L85.1007 79.8572C84.3798 79.8581 83.68 79.6146 83.1154 79.1664C83.0707 79.1322 83.028 79.096 82.9854 79.0576L81.497 77.7441L81.3435 77.6097L81.0834 77.3794L78.4307 75.0424L78.4243 75.0381L78.4157 75.0317L78.4094 75.0253L76.6374 73.4602L76.2002 73.0742L76.1662 73.0465L76.1554 73.0358L75.744 72.6712L70.7287 68.2487L66.5429 64.5576C65.8812 63.9734 65.0288 63.6511 64.1461 63.6514L45.7993 63.6514C44.8383 63.6527 43.9171 64.0351 43.2376 64.7146C42.558 65.3941 42.1757 66.3154 42.1743 67.2764L42.1743 135.085C42.1757 136.046 42.558 136.967 43.2376 137.647C43.9171 138.326 44.8383 138.709 45.7993 138.71H160.093C161.054 138.709 161.976 138.326 162.655 137.647C163.335 136.967 163.717 136.046 163.718 135.085V83.4823C163.717 82.5627 163.366 81.678 162.738 81.0068C162.109 80.3355 161.25 79.9278 160.332 79.8658ZM163.292 135.085C163.291 135.933 162.954 136.746 162.354 137.346C161.754 137.945 160.941 138.283 160.093 138.284H45.7993C44.9513 138.283 44.1384 137.945 43.5387 137.346C42.9391 136.746 42.6018 135.933 42.6008 135.085L42.6008 67.2764C42.6018 66.4284 42.9391 65.6154 43.5387 65.0158C44.1384 64.4162 44.9513 64.0789 45.7993 64.0778H64.1461C64.9251 64.0772 65.6775 64.3617 66.2613 64.8775L70.2275 68.3767L75.744 73.2406L75.9934 73.4602L76.2002 73.6436L80.5823 77.5074L80.9937 77.872L81.0983 77.9637L82.7018 79.3775C83.3658 79.9592 84.2179 80.2811 85.1007 80.2837L160.093 80.2837C160.173 80.283 160.253 80.2865 160.332 80.2944C161.136 80.3552 161.888 80.7173 162.437 81.3083C162.985 81.8994 163.291 82.6758 163.292 83.4822L163.292 135.085ZM81.0834 77.3794L78.4307 75.0424L78.4243 75.0381L78.4157 75.0317L78.4094 75.0253C78.3262 74.9656 78.243 74.9038 78.162 74.8398C78.1407 74.8249 78.1215 74.81 78.1024 74.795C78.0916 74.7865 78.0831 74.7801 78.0725 74.7716C78.0682 74.7694 78.066 74.7652 78.0617 74.7631C78.0021 74.7161 77.9402 74.6671 77.8806 74.618C77.8507 74.5967 77.823 74.5733 77.7931 74.5498C77.7121 74.4837 77.6311 74.4155 77.55 74.3472C77.4647 74.2747 77.3795 74.2022 77.2942 74.1276C77.292 74.1255 77.2877 74.1233 77.2856 74.1212C77.2686 74.1063 77.2536 74.0914 77.2366 74.0786C77.1555 74.0061 77.0745 73.9336 76.9935 73.8568C76.9253 73.795 76.857 73.731 76.7909 73.6692C76.729 73.6116 76.6672 73.554 76.6075 73.4922L76.5947 73.4794C76.5499 73.4367 76.5052 73.392 76.4583 73.345C76.4134 73.3024 76.3709 73.2576 76.3282 73.2128C76.2834 73.1702 76.2407 73.1254 76.2002 73.0806L76.1662 73.0465L76.1554 73.0358L75.744 72.6712V73.2406L75.9934 73.4602L76.2002 73.6436L80.5823 77.5074L80.9937 77.872L81.0983 77.9637L81.1964 77.8208L81.3435 77.6097L81.0834 77.3794ZM144.768 79.8572C144.775 79.998 144.785 80.1408 144.796 80.2837H159.876V79.8572H144.768ZM81.0834 77.3794L78.4307 75.0424L78.4243 75.0381L78.4157 75.0317L78.4094 75.0253C78.3262 74.9656 78.243 74.9038 78.162 74.8398C78.1407 74.8249 78.1215 74.81 78.1024 74.795C78.0916 74.7865 78.0831 74.7801 78.0725 74.7716C78.0682 74.7694 78.066 74.7652 78.0617 74.7631C78.0021 74.7161 77.9402 74.6671 77.8806 74.618C77.8507 74.5967 77.823 74.5733 77.7931 74.5498C77.7121 74.4837 77.6311 74.4155 77.55 74.3472C77.4647 74.2747 77.3795 74.2022 77.2942 74.1276C77.292 74.1255 77.2877 74.1233 77.2856 74.1212C77.2686 74.1063 77.2536 74.0914 77.2366 74.0786C77.1555 74.0061 77.0745 73.9336 76.9935 73.8568C76.9253 73.795 76.857 73.731 76.7909 73.6692C76.729 73.6116 76.6672 73.554 76.6075 73.4922L76.5947 73.4794C76.5499 73.4367 76.5052 73.392 76.4583 73.345C76.4134 73.3024 76.3709 73.2576 76.3282 73.2128C76.2834 73.1702 76.2407 73.1254 76.2002 73.0806L76.1662 73.0465L76.1554 73.0358L75.744 72.6712V73.2406L75.9934 73.4602L76.2002 73.6436L80.5823 77.5074L80.9937 77.872L81.0983 77.9637L81.1964 77.8208L81.3435 77.6097L81.0834 77.3794ZM81.0834 77.3794L78.4307 75.0424L78.4243 75.0381L78.4157 75.0317L78.4094 75.0253C78.3262 74.9656 78.243 74.9038 78.162 74.8398C78.1407 74.8249 78.1215 74.81 78.1024 74.795C78.0916 74.7865 78.0831 74.7801 78.0725 74.7716C78.0682 74.7694 78.066 74.7652 78.0617 74.7631C78.0021 74.7161 77.9402 74.6671 77.8806 74.618C77.8507 74.5967 77.823 74.5733 77.7931 74.5498C77.7121 74.4837 77.6311 74.4155 77.55 74.3472C77.4647 74.2747 77.3795 74.2022 77.2942 74.1276C77.292 74.1255 77.2877 74.1233 77.2856 74.1212C77.2686 74.1063 77.2536 74.0914 77.2366 74.0786C77.1555 74.0061 77.0745 73.9336 76.9935 73.8568C76.9253 73.795 76.857 73.731 76.7909 73.6692C76.729 73.6116 76.6672 73.554 76.6075 73.4922L76.5947 73.4794C76.5499 73.4367 76.5052 73.392 76.4583 73.345C76.4134 73.3024 76.3709 73.2576 76.3282 73.2128C76.2834 73.1702 76.2407 73.1254 76.2002 73.0806L76.1662 73.0465L76.1554 73.0358L75.744 72.6712V73.2406L75.9934 73.4602L76.2002 73.6436L80.5823 77.5074L80.9937 77.872L81.0983 77.9637L81.1964 77.8208L81.3435 77.6097L81.0834 77.3794ZM156.242 79.8572H144.768C144.775 79.998 144.785 80.1408 144.796 80.2837H156.541L156.242 79.8572Z" fill="#3F3D56"/>
<path d="M11.7881 67.4039V62.3716C11.7881 60.364 12.5856 58.4385 14.0052 57.0189C15.4249 55.5993 17.3503 54.8018 19.3579 54.8018C21.3656 54.8018 23.291 55.5993 24.7106 57.0189C26.1302 58.4385 26.9278 60.364 26.9278 62.3716V67.4039C26.9277 67.5113 26.8849 67.6143 26.809 67.6903C26.733 67.7662 26.63 67.809 26.5225 67.8091H26.0676C25.9892 67.809 25.9125 67.7863 25.8468 67.7436C25.7811 67.7008 25.7291 67.64 25.6973 67.5684L25.5894 67.3258C25.5715 67.2856 25.5403 67.2528 25.5011 67.2328C25.4619 67.2128 25.4171 67.2069 25.374 67.216C25.331 67.2252 25.2924 67.2488 25.2647 67.283C25.237 67.3172 25.2219 67.3599 25.2219 67.4039C25.2218 67.5113 25.179 67.6143 25.1031 67.6903C25.0271 67.7662 24.9241 67.809 24.8167 67.8091H12.1933C12.0859 67.809 11.9829 67.7662 11.9069 67.6903C11.8309 67.6143 11.7882 67.5113 11.7881 67.4039Z" fill="#2F2E41"/>
<path d="M27.685 135.791H30.2993L31.5428 125.708L27.6846 125.708L27.685 135.791Z" fill="#FFB8B8"/>
<path d="M35.3408 138.219L27.1247 138.219L27.1246 135.045L32.1663 135.044C33.0082 135.044 33.8156 135.379 34.411 135.974C35.0063 136.569 35.3408 137.377 35.3408 138.219Z" fill="#2F2E41"/>
<path d="M8.2807 135.791H10.895L12.1386 125.708L8.28027 125.708L8.2807 135.791Z" fill="#FFB8B8"/>
<path d="M15.9365 138.219L7.72041 138.219L7.72027 135.045L12.762 135.044C13.6039 135.044 14.4113 135.379 15.0067 135.974C15.602 136.569 15.9365 137.377 15.9365 138.219Z" fill="#2F2E41"/>
<path d="M23.4313 126.751L18.3765 106.206C18.3338 106.032 18.2301 105.879 18.0844 105.776C17.9387 105.672 17.7607 105.624 17.5827 105.641C17.4046 105.657 17.2385 105.737 17.1144 105.866C16.9904 105.995 16.9166 106.164 16.9067 106.342L15.7815 126.436C15.7743 126.563 15.7416 126.688 15.6854 126.803C15.6292 126.918 15.5506 127.021 15.4542 127.105C15.3578 127.189 15.2456 127.253 15.1241 127.293C15.0027 127.333 14.8744 127.348 14.7469 127.338L5.75951 126.619C5.51475 126.6 5.28676 126.487 5.12253 126.305C4.9583 126.122 4.87034 125.884 4.8768 125.638C4.99513 121.217 7.25799 90.3749 13.7122 83.633C13.8258 83.5169 13.9671 83.4317 14.1229 83.3853C14.2786 83.339 14.4436 83.3332 14.6022 83.3684L23.2213 85.7142C23.3991 85.7533 23.5623 85.8421 23.6917 85.9703C23.8211 86.0984 23.9114 86.2607 23.9522 86.4382L33.4486 124.716C33.4769 124.841 33.4797 124.971 33.457 125.097C33.4343 125.223 33.3865 125.344 33.3164 125.451C33.2463 125.559 33.1553 125.651 33.0489 125.723C32.9425 125.795 32.8228 125.844 32.6968 125.869L24.5474 127.463C24.3055 127.511 24.0544 127.464 23.8465 127.331C23.6386 127.198 23.4899 126.99 23.4313 126.751Z" fill="#2F2E41"/>
<path d="M20.3921 67.6982C23.2845 67.6982 25.6293 65.3534 25.6293 62.4609C25.6293 59.5684 23.2845 57.2236 20.3921 57.2236C17.4996 57.2236 15.1548 59.5684 15.1548 62.4609C15.1548 65.3534 17.4996 67.6982 20.3921 67.6982Z" fill="#FFB8B8"/>
<path d="M23.1128 86.2838L14.0705 84.2539C13.8738 84.2099 13.696 84.1051 13.5623 83.9543C13.4287 83.8035 13.3459 83.6143 13.3259 83.4138L12.697 77.1819C12.527 75.5184 12.9735 73.8503 13.9519 72.4942C14.9302 71.1381 16.3723 70.1882 18.0045 69.8249C18.0771 69.8088 18.1496 69.7933 18.222 69.7782C19.3456 69.5425 20.511 69.599 21.6066 69.9425C22.7021 70.2859 23.6912 70.9048 24.4792 71.7398C25.2883 72.5816 25.8679 73.617 26.1625 74.7468C26.4571 75.8766 26.4569 77.0631 26.1619 78.1929L24.2521 85.5874C24.1999 85.7933 24.0806 85.9758 23.9129 86.1062C23.7453 86.2367 23.539 86.3075 23.3266 86.3075C23.2547 86.3074 23.183 86.2995 23.1128 86.2838Z" fill="#93C9F5"/>
<path d="M0.694182 95.733C0.569623 95.4789 0.502291 95.2006 0.49693 94.9177C0.491568 94.6348 0.548306 94.3541 0.663149 94.0955C0.777991 93.8368 0.948145 93.6065 1.16162 93.4208C1.3751 93.235 1.62671 93.0983 1.89874 93.0203L8.44359 79.645L11.8198 82.1592L4.34936 94.4762C4.4501 94.9419 4.37653 95.4283 4.14258 95.8434C3.90864 96.2584 3.53057 96.5732 3.08002 96.7282C2.62947 96.8831 2.13774 96.8673 1.69801 96.6839C1.25829 96.5005 0.901122 96.1622 0.694182 95.733Z" fill="#FFB8B8"/>
<path d="M45.2161 88.5343C45.2161 88.2513 45.154 87.9718 45.0343 87.7154C44.9145 87.459 44.74 87.2319 44.5231 87.0503C44.3061 86.8686 44.0519 86.7367 43.7785 86.6639C43.505 86.5911 43.2189 86.5791 42.9403 86.6288L31.1757 77.5005L29.251 81.2443L41.3808 89.0149C41.4954 89.4774 41.7756 89.8818 42.1684 90.1514C42.5611 90.4211 43.0392 90.5374 43.5119 90.4781C43.9847 90.4189 44.4193 90.1883 44.7334 89.83C45.0474 89.4718 45.2192 89.0107 45.2161 88.5343Z" fill="#FFB8B8"/>
<path d="M11.5293 83.2292C11.3962 83.2291 11.2652 83.1955 11.1486 83.1313L7.60437 81.1832C7.42636 81.0854 7.29262 80.923 7.23068 80.7296C7.16874 80.5361 7.18331 80.3263 7.2714 80.1433L10.8414 72.7246C11.1655 72.0282 11.7335 71.4745 12.438 71.1682C12.9445 70.954 13.4994 70.8804 14.0443 70.9551C14.5891 71.0298 15.1037 71.2502 15.5338 71.5928C15.8674 71.854 16.1401 72.1847 16.3329 72.562C16.5686 73.0101 16.6889 73.5099 16.6829 74.0161C16.6768 74.5224 16.5446 75.0192 16.2982 75.4615L12.2256 82.82C12.1566 82.9441 12.0557 83.0476 11.9332 83.1195C11.8108 83.1915 11.6713 83.2293 11.5293 83.2292Z" fill="#93C9F5"/>
<path d="M29.369 81.9225L22.4729 77.1083C22.0569 76.8196 21.7195 76.4318 21.4912 75.9799C21.2629 75.5279 21.1509 75.0262 21.1653 74.5201C21.1723 74.0965 21.2716 73.6795 21.4561 73.2982C21.6915 72.8011 22.0565 72.3768 22.5129 72.0698C22.9692 71.7629 23.4998 71.5847 24.0489 71.5541C24.8163 71.5189 25.57 71.766 26.1676 72.2487L32.639 77.3382C32.7986 77.4638 32.9041 77.6458 32.9336 77.8467C32.9632 78.0477 32.9146 78.2523 32.7978 78.4186L30.4731 81.7279C30.3522 81.8997 30.1681 82.0166 29.9612 82.0531C29.7543 82.0896 29.5414 82.0426 29.369 81.9225Z" fill="#93C9F5"/>
<path d="M14.3467 60.666C14.3467 59.2239 14.9196 57.8409 15.9393 56.8211C16.959 55.8014 18.3421 55.2285 19.7842 55.2285C21.2263 55.2285 22.6093 55.8014 23.6291 56.8211C24.6488 57.8409 25.2217 59.2239 25.2217 60.666V60.9859H23.8139C23.7566 60.9858 23.7001 60.9721 23.6491 60.9459C23.5981 60.9197 23.5541 60.8817 23.5207 60.8351L23.2651 60.4774C23.2461 60.4507 23.2187 60.4312 23.1874 60.4218C23.156 60.4125 23.1225 60.4138 23.092 60.4257C23.0615 60.4376 23.0359 60.4593 23.0191 60.4874C23.0024 60.5155 22.9955 60.5484 22.9995 60.5808C23.0059 60.6315 23.0014 60.683 22.9863 60.7318C22.9713 60.7807 22.946 60.8257 22.9122 60.864C22.8784 60.9023 22.8368 60.933 22.7902 60.954C22.7436 60.975 22.6931 60.9859 22.642 60.9859H14.3467V60.666Z" fill="#2F2E41"/>
<path d="M154.246 136.044H50.5796C49.6797 136.043 48.8168 135.685 48.1804 135.049C47.544 134.413 47.1861 133.55 47.1851 132.65L47.1851 71.146C47.1861 70.2461 47.5441 69.3832 48.1804 68.7468C48.8168 68.1105 49.6797 67.7525 50.5796 67.7515C51.3757 67.7524 52.1388 68.069 52.7017 68.6319C53.2646 69.1947 53.5812 69.9579 53.5821 70.7539L53.5821 128.598C53.5831 129.442 53.9186 130.25 54.515 130.847C55.1114 131.443 55.92 131.779 56.7635 131.78H153.896C154.379 131.774 154.849 131.931 155.232 132.224C155.616 132.517 155.89 132.93 156.01 133.397C156.146 133.84 156.129 134.316 155.963 134.748C155.796 135.181 155.49 135.545 155.092 135.782C154.84 135.947 154.547 136.037 154.246 136.044Z" fill="#F2F2F2"/>
</g>
<defs>
<clipPath id="clip0_232_439">
<rect width="163.218" height="138" fill="white" transform="translate(0.5 0.709961)"/>
</clipPath>
</defs>
</svg>
