<svg width="334" height="340" viewBox="0 0 334 340" fill="none" xmlns="http://www.w3.org/2000/svg">
<g clip-path="url(#clip0_287_438)">
<path d="M75.2989 56.9053L72.7563 70.2906L85.4325 73.8741L83.8575 59.5837L75.2989 56.9053Z" fill="#A0616A"/>
<path d="M226.811 152.237H96.0802C81.2553 152.237 69.2373 164.289 69.2373 179.155V306.273C69.2373 321.139 81.2553 333.19 96.0802 333.19H226.811C241.636 333.19 253.654 321.139 253.654 306.273V179.155C253.654 164.289 241.636 152.237 226.811 152.237Z" fill="white"/>
<path d="M226.811 333.826H96.0802C80.9285 333.826 68.6016 321.466 68.6016 306.272V179.154C68.6016 163.961 80.9285 151.6 96.0802 151.6H226.811C241.963 151.6 254.29 163.961 254.29 179.154V306.272C254.29 321.466 241.963 333.826 226.811 333.826ZM96.0802 152.874C81.6293 152.874 69.8728 164.663 69.8728 179.154V306.272C69.8728 320.763 81.6293 332.552 96.0802 332.552H226.811C241.262 332.552 253.018 320.763 253.018 306.272V179.154C253.018 164.663 241.262 152.874 226.811 152.874L96.0802 152.874Z" fill="#3F3D56"/>
<path d="M236.281 207.347H183.734C181.505 207.347 179.692 205.528 179.692 203.293C179.692 201.059 181.505 199.24 183.734 199.24H236.281C238.51 199.24 240.323 201.059 240.323 203.293C240.323 205.528 238.51 207.347 236.281 207.347Z" fill="#79A5C9"/>
<path d="M186.985 239.222H135.907C134.619 239.222 133.571 238.171 133.571 236.88C133.571 235.588 134.619 234.538 135.907 234.538H186.985C188.273 234.538 189.32 235.588 189.32 236.88C189.32 238.171 188.273 239.222 186.985 239.222Z" fill="#79A5C9"/>
<path d="M114.791 160.942H85.6296C85.5207 160.942 85.4324 161.031 85.4324 161.14V164.544C85.4324 164.654 85.5207 164.742 85.6296 164.742H114.791C114.9 164.742 114.988 164.654 114.988 164.544V161.14C114.988 161.031 114.9 160.942 114.791 160.942Z" fill="#79A5C9"/>
<path d="M213.017 164.743C214.691 164.743 216.048 163.382 216.048 161.703C216.048 160.024 214.691 158.663 213.017 158.663C211.343 158.663 209.985 160.024 209.985 161.703C209.985 163.382 211.343 164.743 213.017 164.743Z" fill="#3F3D56"/>
<path d="M221.353 164.743C223.027 164.743 224.385 163.382 224.385 161.703C224.385 160.024 223.027 158.663 221.353 158.663C219.679 158.663 218.322 160.024 218.322 161.703C218.322 163.382 219.679 164.743 221.353 164.743Z" fill="#3F3D56"/>
<path d="M229.689 164.743C231.364 164.743 232.721 163.382 232.721 161.703C232.721 160.024 231.364 158.663 229.689 158.663C228.015 158.663 226.658 160.024 226.658 161.703C226.658 163.382 228.015 164.743 229.689 164.743Z" fill="#3F3D56"/>
<path d="M95.762 251.758C95.762 252.178 96.0989 252.516 96.5184 252.516H226.373C226.792 252.516 227.129 252.178 227.129 251.758C227.129 251.337 226.792 250.999 226.373 250.999H96.5184C96.0989 250.999 95.762 251.337 95.762 251.758Z" fill="#3F3D56"/>
<path d="M135.365 64.6637C138.13 62.3731 141.549 61.9467 143.002 63.7112C144.456 65.4756 143.393 68.7622 140.627 71.0533C139.535 71.9836 138.236 72.6382 136.84 72.9621L125.004 82.5191L120.65 76.8541L132.78 68.034C133.361 66.7197 134.247 65.564 135.365 64.6637Z" fill="#A0616A"/>
<path d="M66.9575 86.2272C66.9515 85.8046 66.9555 82.1178 69.6773 79.7876C72.804 77.1109 77.2159 78.1943 78.7633 78.5743C82.3379 79.4521 82.631 80.9898 85.988 82.5697C92.2684 85.5256 84.3992 84.0126 88.1363 83.0648C89.4298 82.7367 108.039 81.4425 112.672 78.5835C121.681 73.0232 127.82 69.6514 127.82 69.6514L131.832 77.6994C131.832 77.6994 126.03 85.7903 117.863 91.7841C109.486 97.9324 105.297 101.007 98.9316 102.194C98.3834 102.297 84.9016 104.605 74.0431 96.4699C71.5663 94.6144 67.0283 91.2146 66.9575 86.2272Z" fill="#E6E6E6"/>
<path d="M79.4059 65.7588C87.1264 65.7588 93.3852 59.4827 93.3852 51.7407C93.3852 43.9988 87.1264 37.7227 79.4059 37.7227C71.6853 37.7227 65.4265 43.9988 65.4265 51.7407C65.4265 59.4827 71.6853 65.7588 79.4059 65.7588Z" fill="#A0616A"/>
<path d="M188.887 145.92L174.49 131.143L167.058 138.916L177.785 153.085L188.424 154.306L188.887 145.92Z" fill="#A0616A"/>
<path d="M106.681 118.208C107.523 118.278 110.199 118.816 112.756 117.405C114.502 116.442 115.397 115.01 115.699 114.555C119.451 108.905 133.848 100.096 146.77 99.5535C149.696 99.4307 151.622 99.7707 153.373 100.686C155.855 101.983 156.846 103.842 159.996 108.196C161.72 110.578 163.626 112.822 165.37 115.188C175.58 129.043 179.45 130.13 179.055 134.572C178.616 139.5 173.315 144.176 169.793 143.636C168.35 143.415 167.791 142.409 165.864 140.373C160.212 134.402 157.874 135.505 153.85 130.931C149.153 125.592 149.768 121.165 147.317 120.994C145.044 120.835 144.078 124.612 139.226 129.629C137.005 131.925 135.424 132.978 130.607 136.329C111.849 149.378 111.55 150.296 107.764 151.336C106.108 151.792 94.3525 155.023 90.1649 149.88C83.6118 141.832 99.093 117.576 106.681 118.208Z" fill="#2F2E41"/>
<path d="M184.486 149.259C185.544 148.782 186.782 148.225 187.181 146.943C187.45 146.076 187.295 145.006 186.738 144.267C186.095 143.414 185.144 143.302 185.182 143.151C185.241 142.921 187.491 143.011 189.96 143.886C190.426 144.052 192.538 144.825 195.224 146.928C197.375 148.612 197.086 148.95 198.435 149.921C202.577 152.903 206.462 150.553 208.703 153.349C209.568 154.429 209.937 155.961 209.573 157.2C208.842 159.687 205.287 160.544 203.344 160.986C198.665 162.05 195.123 161.181 191.425 160.556C178.848 158.431 171.781 160.367 170.836 157.445C170.657 156.892 170.947 156.939 171.917 152.881C172.874 148.876 172.843 147.776 173.658 147.455C174.885 146.972 175.709 149.168 178.8 149.92C181.539 150.586 183.799 149.568 184.486 149.259Z" fill="#2F2E41"/>
<path d="M163.292 194.263L159.654 173.929L149.152 176.176L150.093 193.94L158.213 200.941L163.292 194.263Z" fill="#A0616A"/>
<path d="M110.788 125.043C111.445 125.575 113.359 127.527 116.265 127.8C118.249 127.986 119.791 127.305 120.297 127.098C126.564 124.536 143.411 125.354 154.406 132.181C156.896 133.727 158.3 135.093 159.236 136.836C160.563 139.308 160.343 141.404 160.511 146.78C160.603 149.722 160.924 152.652 161.042 155.592C161.731 172.805 164.325 175.884 161.51 179.337C158.387 183.167 151.383 184.052 148.771 181.621C147.701 180.626 147.802 179.479 147.347 176.709C146.015 168.586 143.462 168.182 142.694 162.132C141.797 155.068 144.785 151.751 142.853 150.23C141.061 148.819 138.146 151.4 131.322 152.819C128.199 153.469 126.301 153.45 120.439 153.51C97.6098 153.746 96.8485 154.336 93.1333 153.065C91.5078 152.509 79.9711 148.564 79.386 141.951C78.4706 131.601 104.864 120.248 110.788 125.043Z" fill="#2F2E41"/>
<path d="M157.78 194.548C158.923 194.75 160.259 194.986 161.307 194.149C162.016 193.583 162.486 192.611 162.439 191.686C162.385 190.618 161.66 189.989 161.777 189.886C161.954 189.729 163.765 191.07 165.319 193.185C165.612 193.584 166.926 195.413 167.97 198.665C168.808 201.271 168.379 201.387 168.951 202.951C170.709 207.75 175.24 207.994 175.528 211.569C175.64 212.949 175.087 214.425 174.092 215.245C172.094 216.892 168.673 215.599 166.818 214.87C162.35 213.116 159.906 210.403 157.196 207.803C147.979 198.963 141.048 196.585 141.901 193.635C142.063 193.077 142.277 193.279 145.352 190.468C148.387 187.692 148.977 186.765 149.831 186.958C151.117 187.25 150.568 189.531 152.705 191.893C154.599 193.987 157.039 194.417 157.78 194.548Z" fill="#2F2E41"/>
<path d="M81.3118 54.4207C81.856 52.4685 81.1724 51.7571 81.8692 50.8809C81.8692 50.8809 82.1495 50.5283 84.656 49.5767C83.9165 45.274 84.4702 44.5465 84.4702 44.5465C85.1084 43.7079 86.3868 43.5052 87.2571 43.6149C89.0978 43.8469 89.4236 45.5154 90.6014 45.478C92.2284 45.4263 94.1797 42.1605 93.574 39.3299C93.08 37.0209 90.9496 35.3062 90.4156 35.6037C89.8861 35.8988 87.98 34.5979 87.2571 34.8585C86.7635 35.0365 84.4398 34.7997 83.9129 35.0448C83.3375 35.3125 81.6896 36.9792 81.5321 36.7692C80.4373 35.3099 80.4606 34.8004 79.8254 34.4859C78.6999 33.9286 77.4763 34.9587 75.3664 35.9764C71.0253 38.0703 69.7541 36.8212 67.7489 38.5847C66.736 39.4755 66.1929 41.1779 65.1479 44.5465C63.6864 49.2573 62.9557 51.6128 63.6615 53.8618C64.3813 56.1554 65.4413 55.6562 67.0058 58.8921C68.7473 62.4941 68.1471 64.5879 69.7927 65.4128C71.0645 66.0503 73.1084 65.6446 73.8801 64.4813C75.2013 62.4895 71.7863 59.7953 72.9511 56.6564C73.6661 54.7296 75.8717 53.2687 77.2244 53.6755C78.7537 54.1355 78.8664 56.8852 79.8254 56.8427C80.6467 56.8062 81.2169 54.7609 81.3118 54.4207Z" fill="#2F2E41"/>
<path d="M70.7216 67.8352C73.5823 64.6188 85.2345 67.9479 86.3282 73.0518C86.778 75.1511 85.1173 76.0375 85.585 78.4547C86.269 81.9901 90.1419 81.7491 93.0167 85.348C97.0979 90.4574 92.8934 95.452 97.4757 103.979C98.4548 105.801 99.2801 107.336 101.006 108.823C104.965 112.233 108.651 111.064 110.667 114.226C112.175 116.59 111.555 119.505 111.41 120.187C110.815 122.987 109.202 123.669 108.066 125.963C106.175 129.779 108.316 132.581 108.437 137.141C108.59 142.847 105.566 150.755 99.5194 153.35C92.7263 156.265 84.5332 151.437 80.5686 146.643C78.2029 143.782 77.5161 141.143 76.4812 137.886C71.8557 123.33 69.2425 124.647 65.7052 113.108C61.6615 99.9167 60.8665 84.4627 65.7052 79.5725C66.3466 78.9243 68.1116 77.4262 69.2353 74.7285C70.7474 71.0985 69.4411 69.275 70.7216 67.8352Z" fill="#E6E6E6"/>
<path d="M112.991 142.708C115.209 145.534 115.553 148.972 113.759 150.387C111.965 151.802 108.714 150.659 106.496 147.832C105.594 146.715 104.972 145.397 104.683 143.99L95.436 131.898L100.214 128.243L109.692 140.037C110.989 140.651 112.12 141.567 112.991 142.708Z" fill="#A0616A"/>
<path d="M79.1267 80.0931C79.5381 80.001 83.1381 79.2526 85.9684 81.4491C89.2196 83.9723 89.0621 88.5243 89.0069 90.1209C88.8793 93.8091 87.4379 94.4107 86.5805 98.0284C84.9763 104.797 88.0314 111.087 89.7192 114.562C90.3035 115.765 92.1805 119.446 95.9168 123.41C103.183 131.119 109.667 135.176 109.667 135.176L102.702 141.385C102.702 141.385 91.6068 137.994 84.0889 131.199C76.3772 124.23 64.518 99.5724 62.0596 93.5659C61.8478 93.0486 64.8468 101.458 70.573 89.1388C71.8791 86.3288 74.2722 81.1802 79.1267 80.0931Z" fill="#E6E6E6"/>
<path d="M174.63 269.122C170.203 269.803 166.964 272.645 167.396 275.47C167.829 278.295 171.768 280.033 176.196 279.352C177.969 279.104 179.657 278.434 181.119 277.398L199.841 274.277L198.592 266.856L179.912 269.507C178.207 268.958 176.396 268.826 174.63 269.122Z" fill="#FFB6B6"/>
<path d="M255.308 245.989L248.048 261.437L211.554 273.756L181.27 275.376L180.512 268.082L213.332 261.201L247.01 245.242L255.308 245.989Z" fill="#E6E6E6"/>
<path d="M187.998 304.643L181.48 321.174L173.046 315.408L178.03 298.107L187.998 304.643Z" fill="#FFB6B6"/>
<path d="M160.777 298.492L143.525 315.024L150.426 322.328L168.062 308.488L160.777 298.492Z" fill="#FFB6B6"/>
<path d="M258.542 244.67L258.35 243.324L253.941 234.674L239.372 238.518L242.056 250.436L258.542 244.67Z" fill="#FFB6B6"/>
<path d="M252.407 302.336L252.855 308.111C252.855 308.111 254.708 332.324 239.755 334.246C224.803 336.168 218.286 338.09 209.468 323.097L195.666 298.492L187.604 308.111L176.88 299.645C176.88 299.645 184.547 269.658 190.682 268.505C191.448 268.361 192.215 268.289 192.97 268.273C198.048 268.167 202.835 270.658 205.874 274.739L223.27 298.108L229.596 295.224L252.407 302.336Z" fill="#2F2E41"/>
<path d="M169.595 320.406L173.046 313.87L183.014 320.79C183.014 320.79 185.314 329.248 181.864 330.402C178.413 331.555 168.828 330.017 168.828 330.017C168.828 330.017 151.192 333.862 150.809 330.402C150.426 326.941 158.86 326.173 158.86 326.173L169.595 320.406Z" fill="#2F2E41"/>
<path d="M207.167 315.793L180.522 298.957L166.911 311.179L157.71 300.415C157.71 300.415 174.579 275.425 179.563 274.272C184.547 273.119 192.598 272.35 192.598 272.35L217.135 295.032L207.167 315.793Z" fill="#2F2E41"/>
<path d="M143.141 313.485L151.959 323.097L150.796 324.094C150.796 324.094 148.509 334.085 143.141 330.705C137.774 327.326 137.39 326.557 137.39 326.557C137.39 326.557 122.055 330.017 120.521 323.866C118.988 317.714 123.205 318.868 123.205 318.868L127.034 321.174L143.141 313.485Z" fill="#2F2E41"/>
<path d="M243.973 242.746C250.748 242.746 256.241 237.238 256.241 230.444C256.241 223.65 250.748 218.142 243.973 218.142C237.197 218.142 231.704 223.65 231.704 230.444C231.704 237.238 237.197 242.746 243.973 242.746Z" fill="#FFB6B6"/>
<path d="M241.097 247.937L258.733 242.555C258.733 242.555 265.634 258.702 264.484 266.006C263.334 273.311 252.855 308.111 252.855 308.111L229.596 295.224C229.596 295.224 229.212 287.535 228.062 284.075C226.912 280.615 223.27 270.043 231.321 261.201C239.372 252.358 241.097 247.937 241.097 247.937Z" fill="#E6E6E6"/>
<path d="M202.282 328.665C199.412 332.113 198.859 336.393 201.048 338.224C203.237 340.055 207.337 338.744 210.207 335.295C211.373 333.932 212.196 332.31 212.608 330.563L224.585 315.8L218.751 311.065L206.496 325.448C204.855 326.168 203.41 327.271 202.282 328.665Z" fill="#FFB6B6"/>
<path d="M254.625 255.693L258.793 272.251L238.391 304.999L217.564 325.989L210.813 320.373L231.818 294.166L247.74 260.398L254.625 255.693Z" fill="#E6E6E6"/>
<path d="M232.663 228.33C235.809 228.322 235.988 228.343 236.497 228.33C240.399 228.227 241.42 226.687 243.398 226.792C246.928 226.98 242.268 244.729 240.331 252.935C238.43 260.983 244.853 268.194 245.315 268.697C251.834 275.807 263.286 277.107 265.251 274.08C266.841 271.629 261.205 267.903 262.567 262.546C263.899 257.31 270.049 257.868 271.768 252.935C273.569 247.769 267.518 245.164 263.717 232.559C261.534 225.32 261.92 223.971 259.883 219.488C254.438 207.503 227.75 212.606 230.746 223.717C231.325 225.866 229.783 228.337 232.663 228.33Z" fill="#2F2E41"/>
<path d="M271.839 82.2842H142.899C139.253 82.2842 136.286 79.3093 136.286 75.653V6.97101C136.286 3.31479 139.253 0.339844 142.899 0.339844H271.839C275.485 0.339844 278.452 3.31478 278.452 6.97101V75.653C278.452 79.3092 275.485 82.2842 271.839 82.2842Z" fill="white"/>
<path d="M271.839 82.2842H142.899C139.253 82.2842 136.286 79.3093 136.286 75.653V6.97101C136.286 3.31479 139.253 0.339844 142.899 0.339844H271.839C275.485 0.339844 278.452 3.31478 278.452 6.97101V75.653C278.452 79.3092 275.485 82.2842 271.839 82.2842ZM142.899 1.4472C139.862 1.4472 137.391 3.92523 137.391 6.97101V75.653C137.391 78.6988 139.862 81.1768 142.899 81.1768H271.839C274.876 81.1768 277.347 78.6988 277.347 75.653V6.97101C277.347 3.92523 274.876 1.4472 271.839 1.4472H142.899Z" fill="#3F3D56"/>
<path d="M261.887 8.64531C262.802 8.64531 263.544 7.90164 263.544 6.98427C263.544 6.06691 262.802 5.32324 261.887 5.32324C260.972 5.32324 260.231 6.06691 260.231 6.98427C260.231 7.90164 260.972 8.64531 261.887 8.64531Z" fill="#3F3D56"/>
<path d="M266.304 8.64531C267.219 8.64531 267.961 7.90164 267.961 6.98427C267.961 6.06691 267.219 5.32324 266.304 5.32324C265.389 5.32324 264.648 6.06691 264.648 6.98427C264.648 7.90164 265.389 8.64531 266.304 8.64531Z" fill="#3F3D56"/>
<path d="M270.721 8.64531C271.636 8.64531 272.378 7.90164 272.378 6.98427C272.378 6.06691 271.636 5.32324 270.721 5.32324C269.807 5.32324 269.065 6.06691 269.065 6.98427C269.065 7.90164 269.807 8.64531 270.721 8.64531Z" fill="#3F3D56"/>
<path d="M145.673 33.8369C145.216 33.8369 144.845 34.2095 144.845 34.6674C144.845 34.8907 144.931 35.0973 145.087 35.2498C145.244 35.4114 145.451 35.4979 145.673 35.4979H269.617C270.074 35.4979 270.445 35.1254 270.445 34.6674C270.445 34.4441 270.359 34.2376 270.203 34.0851C270.046 33.9234 269.84 33.8369 269.617 33.8369H145.673Z" fill="#E6E6E6"/>
<path d="M254.157 33.5605V35.7753H145.673C145.369 35.7753 145.093 35.6534 144.894 35.4486C144.69 35.2493 144.569 34.9724 144.569 34.6679C144.569 34.0588 145.066 33.5605 145.673 33.5605H254.157Z" fill="#79A5C9"/>
<path d="M268.237 29.4079H257.194C255.976 29.4079 254.985 28.4147 254.985 27.1932C254.985 25.9718 255.976 24.9785 257.194 24.9785H268.237C269.454 24.9785 270.445 25.9718 270.445 27.1932C270.445 28.4147 269.454 29.4079 268.237 29.4079Z" fill="#E6E6E6"/>
<path d="M195.905 17.781H146.501C145.283 17.781 144.292 16.7877 144.292 15.5663C144.292 14.3448 145.283 13.3516 146.501 13.3516H195.905C197.123 13.3516 198.114 14.3448 198.114 15.5663C198.114 16.7877 197.123 17.781 195.905 17.781Z" fill="#E6E6E6"/>
<path d="M145.673 58.7529C145.216 58.7529 144.845 59.1255 144.845 59.5834C144.845 59.8068 144.931 60.0133 145.087 60.1658C145.244 60.3274 145.451 60.414 145.673 60.414H269.617C270.074 60.414 270.445 60.0414 270.445 59.5834C270.445 59.3601 270.359 59.1536 270.203 59.0011C270.046 58.8394 269.84 58.7529 269.617 58.7529H145.673Z" fill="#E6E6E6"/>
<path d="M211.641 58.4756V60.6903H145.673C145.369 60.6903 145.093 60.5685 144.894 60.3636C144.69 60.1643 144.569 59.8875 144.569 59.5829C144.569 58.9739 145.066 58.4756 145.673 58.4756H211.641Z" fill="#79A5C9"/>
<path d="M268.237 54.323H257.194C255.976 54.323 254.985 53.3297 254.985 52.1083C254.985 50.8868 255.976 49.8936 257.194 49.8936H268.237C269.454 49.8936 270.445 50.8868 270.445 52.1083C270.445 53.3297 269.454 54.323 268.237 54.323Z" fill="#E6E6E6"/>
</g>
<defs>
<clipPath id="clip0_287_438">
<rect width="333.5" height="338.711" fill="white" transform="translate(0.5 0.339844)"/>
</clipPath>
</defs>
</svg>
