<svg width="435" height="331" viewBox="0 0 435 331" fill="none" xmlns="http://www.w3.org/2000/svg">
<g clip-path="url(#clip0_287_382)">
<path d="M13.0537 217.094L12.9201 317.684C12.9195 319.552 13.6598 321.343 14.9787 322.666C16.2976 323.988 18.0874 324.733 19.9554 324.738L61.752 324.799C49.9858 302.795 43.3237 268.161 43.3629 241.464C43.3734 230.928 44.4441 220.421 46.5589 210.099L20.1096 210.061C18.2416 210.06 16.4497 210.8 15.1269 212.119C13.8042 213.437 13.0585 215.226 13.0537 217.094Z" fill="#79A5C9"/>
<path d="M74.3027 203.345L148.792 203.053L141.549 178.962C140.97 177.069 139.802 175.411 138.213 174.23C136.624 173.05 134.699 172.408 132.72 172.399H132.685L90.1686 172.566C88.183 172.583 86.2552 173.236 84.6689 174.43C83.0825 175.624 81.9215 177.295 81.3566 179.198L74.3027 203.345Z" fill="#3F3D56"/>
<path d="M32.7175 195.102C34.7918 195.102 36.7811 195.925 38.2479 197.392C39.7146 198.858 40.5386 200.847 40.5386 202.92H24.8964C24.8964 200.847 25.7204 198.858 27.1872 197.392C28.6539 195.925 30.6432 195.102 32.7175 195.102Z" fill="#79A5C9"/>
<path d="M8.69519 329.695H214.278C216.796 329.692 219.21 328.691 220.99 326.911C222.771 325.131 223.772 322.718 223.775 320.201V211.856C223.772 209.338 222.771 206.925 220.99 205.145C219.21 203.365 216.796 202.364 214.278 202.361H8.69519C6.17729 202.364 3.76335 203.365 1.98293 205.145C0.202499 206.925 -0.798996 209.338 -0.801834 211.856V320.201C-0.798996 322.718 0.202499 325.131 1.98293 326.911C3.76335 328.691 6.17729 329.692 8.69519 329.695ZM214.278 203.478C216.5 203.481 218.63 204.364 220.2 205.935C221.771 207.505 222.655 209.635 222.658 211.856V320.201C222.655 322.422 221.771 324.551 220.2 326.122C218.63 327.692 216.5 328.576 214.278 328.578H8.69519C6.47353 328.576 4.34357 327.692 2.77261 326.122C1.20166 324.551 0.317978 322.422 0.31546 320.201V211.856C0.317978 209.635 1.20166 207.505 2.77261 205.935C4.34357 204.364 6.47353 203.481 8.69519 203.478H214.278Z" fill="#3F3D56"/>
<path d="M102.549 194.264H120.425C121.685 194.264 122.893 193.764 123.783 192.873C124.674 191.983 125.174 190.776 125.174 189.517C125.174 188.258 124.674 187.05 123.783 186.16C122.893 185.27 121.685 184.77 120.425 184.77H102.549C101.289 184.77 100.081 185.27 99.1909 186.16C98.3004 187.05 97.8 188.258 97.8 189.517C97.8 190.776 98.3004 191.983 99.1909 192.873C100.081 193.764 101.289 194.264 102.549 194.264Z" fill="white"/>
<path d="M111.487 308.473C119.884 308.473 128.093 305.984 135.075 301.32C142.057 296.656 147.499 290.027 150.712 282.271C153.926 274.516 154.767 265.982 153.129 257.748C151.49 249.515 147.447 241.952 141.509 236.016C135.571 230.08 128.006 226.037 119.77 224.4C111.534 222.762 102.997 223.602 95.2393 226.815C87.4813 230.027 80.8503 235.468 76.1851 242.448C71.5198 249.428 69.0297 257.634 69.0297 266.029C69.0424 277.282 73.5197 288.07 81.4792 296.027C89.4387 303.985 100.231 308.461 111.487 308.473ZM111.487 224.701C119.663 224.701 127.656 227.125 134.454 231.666C141.253 236.207 146.551 242.662 149.68 250.213C152.809 257.765 153.628 266.075 152.033 274.091C150.438 282.108 146.5 289.472 140.719 295.252C134.937 301.032 127.571 304.968 119.552 306.562C111.533 308.157 103.221 307.338 95.6669 304.21C88.113 301.082 81.6565 295.785 77.1141 288.989C72.5716 282.193 70.147 274.202 70.147 266.029C70.1594 255.072 74.5188 244.567 82.2689 236.819C90.019 229.071 100.527 224.713 111.487 224.701Z" fill="#3F3D56"/>
<path d="M111.487 293.953C117.012 293.953 122.412 292.315 127.006 289.247C131.599 286.178 135.18 281.817 137.294 276.715C139.408 271.612 139.961 265.998 138.883 260.581C137.805 255.164 135.145 250.189 131.239 246.283C127.332 242.378 122.355 239.719 116.937 238.641C111.518 237.564 105.902 238.117 100.798 240.23C95.6942 242.344 91.3318 245.923 88.2625 250.515C85.1933 255.107 83.5551 260.506 83.5551 266.029C83.5634 273.432 86.509 280.53 91.7455 285.765C96.982 291 104.082 293.944 111.487 293.953ZM111.487 239.221C116.791 239.221 121.975 240.794 126.385 243.739C130.795 246.685 134.232 250.872 136.261 255.77C138.291 260.668 138.822 266.058 137.787 271.258C136.753 276.458 134.199 281.235 130.449 284.984C126.698 288.733 121.92 291.286 116.719 292.321C111.517 293.355 106.126 292.824 101.226 290.795C96.326 288.766 92.138 285.33 89.1915 280.922C86.245 276.513 84.6724 271.331 84.6724 266.029C84.6804 258.921 87.5081 252.108 92.5352 247.082C97.5623 242.056 104.378 239.229 111.487 239.221Z" fill="#3F3D56"/>
<path d="M111.487 287.25C99.7629 287.25 90.2585 277.749 90.2585 266.028C90.2585 254.307 99.7629 244.806 111.487 244.806C123.211 244.806 132.716 254.307 132.716 266.028C132.716 277.749 123.211 287.25 111.487 287.25Z" fill="#CCCCCC"/>
<path d="M124.336 266.028C124.336 262.664 123.12 259.414 120.914 256.874C118.707 254.334 115.657 252.677 112.325 252.205C114.306 251.924 116.323 252.071 118.242 252.637C120.16 253.202 121.935 254.173 123.446 255.484C124.956 256.794 126.168 258.414 126.998 260.233C127.828 262.053 128.258 264.029 128.258 266.028C128.258 268.028 127.828 270.004 126.998 271.824C126.168 273.643 124.956 275.263 123.446 276.573C121.935 277.884 120.16 278.855 118.242 279.42C116.323 279.986 114.306 280.133 112.325 279.851C115.657 279.38 118.707 277.723 120.914 275.183C123.12 272.643 124.336 269.392 124.336 266.028Z" fill="white"/>
<path d="M18.7512 203.479H46.6836V202.92C46.6836 199.217 45.2122 195.666 42.593 193.047C39.9738 190.429 36.4214 188.958 32.7174 188.958C29.0133 188.958 25.4609 190.429 22.8418 193.047C20.2226 195.666 18.7512 199.217 18.7512 202.92V203.479ZM45.5543 202.362H19.8805C20.0246 199.055 21.44 195.931 23.8316 193.642C26.2232 191.353 29.4064 190.075 32.7174 190.075C36.0284 190.075 39.2116 191.353 41.6032 193.642C43.9948 195.931 45.4102 199.055 45.5543 202.362Z" fill="#3F3D56"/>
<path d="M209.809 219.116C210.914 219.116 211.994 218.788 212.913 218.175C213.831 217.561 214.547 216.689 214.97 215.668C215.393 214.648 215.504 213.525 215.288 212.442C215.073 211.358 214.541 210.363 213.759 209.582C212.978 208.801 211.983 208.269 210.899 208.054C209.815 207.838 208.692 207.949 207.671 208.371C206.65 208.794 205.778 209.51 205.164 210.428C204.55 211.347 204.223 212.427 204.223 213.531C204.224 215.012 204.813 216.431 205.861 217.478C206.908 218.525 208.328 219.114 209.809 219.116ZM209.809 209.063C210.693 209.063 211.557 209.325 212.292 209.816C213.027 210.307 213.6 211.005 213.938 211.821C214.276 212.638 214.365 213.536 214.192 214.403C214.02 215.269 213.594 216.066 212.969 216.69C212.344 217.315 211.548 217.741 210.681 217.913C209.814 218.086 208.915 217.997 208.099 217.659C207.282 217.321 206.584 216.748 206.093 216.013C205.602 215.279 205.34 214.415 205.34 213.531C205.341 212.347 205.812 211.211 206.65 210.373C207.488 209.536 208.624 209.065 209.809 209.063Z" fill="#3F3D56"/>
<path d="M209.809 216.323C208.267 216.323 207.016 215.073 207.016 213.531C207.016 211.988 208.267 210.738 209.809 210.738C211.352 210.738 212.603 211.988 212.603 213.531C212.603 215.073 211.352 216.323 209.809 216.323Z" fill="#79A5C9"/>
<path d="M195.284 216.323C193.741 216.323 192.491 215.073 192.491 213.531C192.491 211.988 193.741 210.738 195.284 210.738C196.827 210.738 198.077 211.988 198.077 213.531C198.077 215.073 196.827 216.323 195.284 216.323Z" fill="#CCCCCC"/>
<path d="M180.759 216.323C179.217 216.323 177.966 215.073 177.966 213.531C177.966 211.988 179.217 210.738 180.759 210.738C182.302 210.738 183.553 211.988 183.553 213.531C183.553 215.073 182.302 216.323 180.759 216.323Z" fill="#CCCCCC"/>
<path d="M195.284 219.116C196.389 219.116 197.469 218.788 198.388 218.175C199.306 217.561 200.023 216.689 200.445 215.668C200.868 214.648 200.979 213.525 200.763 212.442C200.548 211.358 200.016 210.363 199.234 209.582C198.453 208.801 197.458 208.269 196.374 208.054C195.29 207.838 194.167 207.949 193.146 208.371C192.125 208.794 191.253 209.51 190.639 210.428C190.025 211.347 189.698 212.427 189.698 213.531C189.699 215.012 190.288 216.431 191.336 217.478C192.383 218.525 193.803 219.114 195.284 219.116ZM195.284 209.063C196.168 209.063 197.032 209.325 197.767 209.816C198.502 210.307 199.075 211.005 199.413 211.821C199.751 212.638 199.84 213.536 199.667 214.403C199.495 215.269 199.069 216.066 198.444 216.69C197.819 217.315 197.023 217.741 196.156 217.913C195.289 218.086 194.39 217.997 193.574 217.659C192.757 217.321 192.059 216.748 191.568 216.013C191.077 215.279 190.815 214.415 190.815 213.531C190.816 212.347 191.288 211.211 192.125 210.373C192.963 209.536 194.099 209.065 195.284 209.063Z" fill="#3F3D56"/>
<path d="M180.76 219.116C181.865 219.116 182.945 218.788 183.863 218.175C184.782 217.561 185.498 216.689 185.921 215.668C186.344 214.648 186.454 213.525 186.239 212.442C186.023 211.358 185.491 210.363 184.71 209.582C183.929 208.801 182.933 208.269 181.85 208.054C180.766 207.838 179.643 207.949 178.622 208.371C177.601 208.794 176.729 209.51 176.115 210.428C175.501 211.347 175.173 212.427 175.173 213.531C175.175 215.012 175.764 216.431 176.811 217.478C177.859 218.525 179.279 219.114 180.76 219.116ZM180.76 209.063C181.644 209.063 182.508 209.325 183.243 209.816C183.978 210.307 184.55 211.005 184.889 211.821C185.227 212.638 185.315 213.536 185.143 214.403C184.971 215.269 184.545 216.066 183.92 216.69C183.295 217.315 182.499 217.741 181.632 217.913C180.765 218.086 179.866 217.997 179.049 217.659C178.233 217.321 177.535 216.748 177.044 216.013C176.553 215.279 176.291 214.415 176.291 213.531C176.292 212.347 176.763 211.211 177.601 210.373C178.439 209.536 179.575 209.065 180.76 209.063Z" fill="#3F3D56"/>
<path d="M150.592 250.879H223.217V251.996H150.592V250.879Z" fill="#3F3D56"/>
<path d="M152.396 273.359H223.217V274.476H152.396V273.359Z" fill="#3F3D56"/>
<path d="M-0.242477 250.879H72.3818V251.996H-0.242477V250.879Z" fill="#3F3D56"/>
<path d="M-0.115143 273.359H70.7056V274.476H-0.115143V273.359Z" fill="#3F3D56"/>
<path d="M282.086 140.636C286.616 138.555 289.594 132.607 289.425 126.74C289.255 120.873 286.167 115.387 281.908 112.589C279.831 111.259 277.457 110.465 274.998 110.28C272.539 110.094 270.072 110.522 267.819 111.525C263.248 113.47 257.11 114 254.363 118.835C252.251 122.55 253.012 130.839 254.507 134.971C255.799 138.541 258.958 140.554 262.039 141.679C265.449 142.914 269.085 143.403 272.7 143.112C276.316 142.821 279.826 141.757 282.995 139.992" fill="#2F2E41"/>
<path d="M309.708 322.83L316.222 320.712L311.149 294.59L301.536 297.716L309.708 322.83Z" fill="#FFB8B8"/>
<path d="M320.268 317.338L307.708 321.423L310.28 329.329L330.75 322.672C330.412 321.634 329.873 320.672 329.163 319.842C328.453 319.012 327.587 318.33 326.614 317.835C325.641 317.339 324.579 317.04 323.491 316.955C322.402 316.87 321.307 317 320.268 317.338Z" fill="#2F2E41"/>
<path d="M251.403 322.972L258.252 322.971L261.51 296.562L251.402 296.562L251.403 322.972Z" fill="#FFB8B8"/>
<path d="M263.144 321.015H249.935V329.329H271.46C271.46 328.237 271.245 327.156 270.827 326.147C270.409 325.138 269.797 324.222 269.025 323.45C268.252 322.678 267.336 322.065 266.327 321.648C265.318 321.23 264.236 321.015 263.144 321.015Z" fill="#2F2E41"/>
<path d="M251.748 312.169C251.789 312.169 251.83 312.168 251.871 312.166L259.461 311.804C260.1 311.773 260.703 311.5 261.148 311.04C261.593 310.58 261.845 309.968 261.855 309.329L262.884 234.274C262.886 234.088 262.951 233.908 263.067 233.762C263.183 233.617 263.345 233.515 263.526 233.471C263.707 233.428 263.897 233.446 264.067 233.522C264.237 233.599 264.376 233.73 264.463 233.895L304.662 310.095C304.912 310.572 305.309 310.956 305.794 311.189C306.279 311.423 306.827 311.494 307.356 311.391L314.91 309.953C315.265 309.885 315.602 309.741 315.897 309.531C316.192 309.321 316.438 309.05 316.619 308.736C316.799 308.423 316.91 308.073 316.943 307.713C316.976 307.352 316.93 306.989 316.81 306.648L287.52 223.684L285.266 199.142C285.216 198.57 284.97 198.033 284.569 197.62C284.169 197.208 283.638 196.947 283.067 196.881C274.533 195.832 262.607 188.842 257.876 185.885C257.586 185.702 257.261 185.581 256.921 185.53C256.582 185.479 256.235 185.498 255.904 185.588C255.569 185.678 255.256 185.836 254.984 186.051C254.712 186.267 254.487 186.536 254.323 186.842C242.926 208.015 238.567 232.265 241.878 256.08L249.261 309.996C249.341 310.599 249.637 311.152 250.094 311.552C250.552 311.952 251.14 312.171 251.748 312.169Z" fill="#2F2E41"/>
<path d="M272.177 146.401C264.599 146.401 258.456 140.259 258.456 132.684C258.456 125.108 264.599 118.967 272.177 118.967C279.755 118.967 285.898 125.108 285.898 132.684C285.898 140.259 279.755 146.401 272.177 146.401Z" fill="#FFB8B8"/>
<path d="M285.849 205.036L289.98 175.523C290.986 171.038 290.17 166.338 287.71 162.455C285.251 158.572 281.351 155.824 276.866 154.815C272.381 153.806 267.679 154.618 263.792 157.073C259.906 159.528 257.154 163.425 256.141 167.908C254.964 173.364 252.574 180.005 253.447 187.164C259.566 204.142 270.673 209.376 285.849 205.036Z" fill="#B3B3B3"/>
<path d="M267.692 159.241H277.748C278.414 159.24 279.053 158.975 279.525 158.504C279.996 158.032 280.261 157.394 280.262 156.727V153.376C280.261 152.71 279.996 152.071 279.525 151.6C279.053 151.129 278.414 150.864 277.748 150.863H267.692C267.026 150.864 266.387 151.129 265.915 151.6C265.444 152.071 265.179 152.71 265.178 153.376V156.727C265.179 157.394 265.444 158.032 265.915 158.504C266.387 158.975 267.026 159.24 267.692 159.241Z" fill="#B3B3B3"/>
<path d="M216.73 215.023C216.457 214.189 216.37 213.306 216.476 212.435C216.582 211.565 216.877 210.728 217.341 209.983C217.805 209.239 218.427 208.606 219.162 208.127C219.898 207.649 220.73 207.338 221.598 207.216L252.899 162.418L262.18 171.591L228.494 212.742C228.603 214.214 228.167 215.676 227.27 216.849C226.372 218.022 225.076 218.825 223.626 219.106C222.175 219.387 220.673 219.127 219.402 218.374C218.131 217.622 217.18 216.429 216.73 215.023Z" fill="#FFB8B8"/>
<path d="M243.108 176.122L254.411 183.665C254.733 183.88 255.097 184.023 255.479 184.084C255.861 184.145 256.251 184.123 256.624 184.02C256.996 183.917 257.342 183.735 257.638 183.486C257.934 183.237 258.173 182.927 258.338 182.578L264.128 170.331C265.216 168.68 265.605 166.665 265.21 164.727C264.814 162.79 263.667 161.088 262.019 159.995C260.37 158.902 258.356 158.507 256.417 158.896C254.477 159.285 252.772 160.427 251.673 162.072L242.607 172.079C242.347 172.366 242.153 172.705 242.036 173.073C241.92 173.442 241.884 173.831 241.931 174.215C241.979 174.599 242.109 174.968 242.312 175.297C242.515 175.626 242.786 175.907 243.108 176.122Z" fill="#B3B3B3"/>
<path d="M327.306 154.829C327.238 155.131 327.193 155.437 327.173 155.745L303.175 169.586L297.342 166.229L291.123 174.367L300.872 181.313C301.659 181.874 302.608 182.165 303.575 182.141C304.541 182.118 305.474 181.781 306.234 181.183L330.98 161.666C332.097 162.079 333.313 162.143 334.467 161.848C335.621 161.554 336.657 160.915 337.439 160.017C338.221 159.119 338.711 158.004 338.843 156.821C338.976 155.638 338.745 154.443 338.182 153.394C337.618 152.345 336.749 151.493 335.689 150.95C334.629 150.407 333.429 150.2 332.248 150.356C331.067 150.512 329.962 151.023 329.08 151.822C328.197 152.622 327.578 153.67 327.306 154.829Z" fill="#FFB8B8"/>
<path d="M296.199 179.642L302.229 167.466C302.401 167.12 302.496 166.74 302.508 166.354C302.519 165.968 302.447 165.583 302.297 165.227C302.147 164.871 301.922 164.551 301.637 164.29C301.352 164.029 301.014 163.832 300.646 163.713L287.753 159.547C285.975 158.679 283.925 158.552 282.054 159.193C280.182 159.834 278.641 161.191 277.768 162.966C276.895 164.741 276.763 166.79 277.399 168.663C278.035 170.535 279.387 172.08 281.161 172.957L292.254 180.659C292.571 180.879 292.933 181.029 293.313 181.097C293.694 181.165 294.085 181.15 294.459 181.054C294.834 180.957 295.183 180.781 295.483 180.538C295.784 180.294 296.028 179.989 296.199 179.642Z" fill="#B3B3B3"/>
<path d="M258.582 138.929C260.98 139.041 260.567 133.954 261.318 131.674C262.068 129.395 263.103 126.675 265.463 126.238C267.398 125.88 269.146 127.294 270.831 128.309C273.835 130.119 277.723 130.786 280.877 129.254C284.031 127.721 285.948 123.625 284.415 120.473C283.947 119.606 283.307 118.845 282.534 118.235C281.76 117.626 280.87 117.182 279.918 116.931C278.009 116.441 276.02 116.345 274.073 116.65C269.73 117.183 265.556 118.662 261.847 120.983C259.287 122.587 256.852 124.773 256.09 127.696C255.328 130.618 255.017 138.567 257.996 139.07L258.582 138.929Z" fill="#2F2E41"/>
<path d="M317.428 154.927H430.598C431.632 154.926 432.624 154.514 433.356 153.783C434.087 153.052 434.499 152.06 434.5 151.026V87.3055C434.499 86.2712 434.087 85.2796 433.356 84.5483C432.624 83.8169 431.632 83.4055 430.598 83.4043H317.428C316.394 83.4055 315.402 83.8169 314.67 84.5482C313.938 85.2796 313.527 86.2712 313.526 87.3055V151.026C313.527 152.06 313.938 153.052 314.67 153.783C315.402 154.514 316.394 154.926 317.428 154.927ZM430.598 84.2712C431.402 84.2722 432.174 84.5921 432.743 85.161C433.312 85.7298 433.632 86.5011 433.633 87.3055V151.026C433.632 151.83 433.312 152.601 432.743 153.17C432.174 153.739 431.402 154.059 430.598 154.06H317.428C316.623 154.059 315.852 153.739 315.283 153.17C314.714 152.601 314.394 151.83 314.393 151.026V87.3055C314.394 86.5011 314.714 85.7298 315.283 85.161C315.852 84.5922 316.623 84.2722 317.428 84.2712H430.598Z" fill="#3F3D56"/>
<path d="M393.29 128.135C384.352 128.135 377.107 120.892 377.107 111.957C377.107 103.022 384.352 95.7793 393.29 95.7793C402.227 95.7793 409.472 103.022 409.472 111.957C409.472 120.892 402.227 128.135 393.29 128.135Z" fill="#E6E6E6"/>
<path d="M330.932 140.525L349.928 107.633C350.046 107.427 350.217 107.256 350.423 107.138C350.629 107.019 350.862 106.957 351.099 106.957C351.337 106.957 351.57 107.019 351.776 107.138C351.981 107.256 352.152 107.427 352.271 107.633L363.863 127.706L381.145 97.781C381.298 97.5174 381.517 97.2985 381.78 97.1463C382.044 96.9942 382.343 96.9141 382.647 96.9141C382.952 96.9141 383.251 96.9942 383.515 97.1463C383.778 97.2985 383.997 97.5174 384.149 97.781L408.504 139.952C408.657 140.216 408.737 140.515 408.737 140.819C408.737 141.124 408.657 141.423 408.504 141.686C408.352 141.95 408.133 142.169 407.87 142.321C407.606 142.473 407.307 142.553 407.002 142.553H332.104C331.866 142.553 331.633 142.491 331.427 142.372C331.221 142.253 331.051 142.083 330.932 141.877C330.813 141.671 330.751 141.438 330.751 141.201C330.751 140.963 330.813 140.73 330.932 140.525Z" fill="#79A5C9"/>
<path d="M419.324 91.207H426.262V98.1426H419.324V91.207Z" fill="#3F3D56"/>
<path d="M273.376 61.1019H361.803C362.611 61.101 363.386 60.7795 363.958 60.208C364.53 59.6366 364.851 58.8618 364.852 58.0536V8.26508C364.851 7.45692 364.53 6.68212 363.958 6.11066C363.386 5.5392 362.611 5.21774 361.803 5.2168H273.376C272.568 5.21771 271.793 5.53916 271.221 6.11063C270.65 6.68209 270.328 7.45691 270.327 8.26508V58.0536C270.328 58.8618 270.65 59.6366 271.221 60.2081C271.793 60.7795 272.568 61.101 273.376 61.1019ZM361.803 5.89419C362.432 5.8949 363.034 6.14491 363.479 6.58939C363.924 7.03386 364.174 7.6365 364.174 8.26508V58.0536C364.174 58.6822 363.924 59.2848 363.479 59.7293C363.034 60.1738 362.432 60.4238 361.803 60.4245H273.376C272.748 60.4238 272.145 60.1737 271.7 59.7293C271.256 59.2848 271.006 58.6822 271.005 58.0536V8.26508C271.006 7.63651 271.256 7.03389 271.7 6.58942C272.145 6.14495 272.748 5.89492 273.376 5.89419H361.803Z" fill="#CCCCCC"/>
<path d="M332.652 40.168C325.668 40.168 320.007 34.5086 320.007 27.5273C320.007 20.5461 325.668 14.8867 332.652 14.8867C339.635 14.8867 345.296 20.5461 345.296 27.5273C345.296 34.5086 339.635 40.168 332.652 40.168Z" fill="#F2F2F2"/>
<path d="M283.927 49.8481L298.77 24.1476C298.863 23.987 298.996 23.8536 299.157 23.7609C299.318 23.6681 299.5 23.6193 299.685 23.6193C299.871 23.6193 300.053 23.6681 300.214 23.7609C300.375 23.8536 300.508 23.987 300.601 24.1476L309.659 39.8318L323.162 16.4498C323.281 16.2439 323.452 16.0729 323.658 15.954C323.864 15.8351 324.098 15.7725 324.336 15.7725C324.574 15.7725 324.808 15.8351 325.014 15.954C325.22 16.0729 325.391 16.2439 325.51 16.4498L344.54 49.401C344.659 49.6069 344.721 49.8406 344.721 50.0784C344.721 50.3162 344.659 50.5498 344.54 50.7558C344.421 50.9617 344.25 51.1327 344.044 51.2517C343.838 51.3706 343.604 51.4332 343.366 51.4332H284.843C284.657 51.4332 284.475 51.3843 284.314 51.2916C284.154 51.1988 284.02 51.0655 283.927 50.9048C283.835 50.7442 283.786 50.562 283.786 50.3765C283.786 50.191 283.835 50.0088 283.927 49.8481Z" fill="#E6E6E6"/>
<path d="M352.994 11.3135H358.415V16.7326H352.994V11.3135Z" fill="#CCCCCC"/>
</g>
<defs>
<clipPath id="clip0_287_382">
<rect width="435" height="330" fill="white" transform="matrix(-1 0 0 1 435 0.339844)"/>
</clipPath>
</defs>
</svg>
