<svg fill="none" height="40" viewBox="0 0 31 40" width="31" xmlns="http://www.w3.org/2000/svg"><path d="m15.6675 0c-.5429 0-1.0855.2632-1.4033.792829l-.6163 1.032991c-.2667.44445-.7074.74333-1.2066.87963-.006.00148-.0115.00431-.0174.00579-.5052.13926-1.0411.09857-1.4988-.15625l-1.05037-.58449c-1.08-.6-2.40982.16633-2.43057 1.40337l-.02314 1.22106c-.00888.51556-.2374.99403-.60185 1.35996-.00444.00296-.00861.00712-.01157.01157-.36444.36592-.8444.59296-1.35995.60185l-1.22107.02025c-1.23555.02074-2.00336 1.35197-1.40336 2.43345l.58738 1.05609c.25185.4549.29403.9866.15625 1.4873-.00445.0089-.00572.0172-.00868.0261-.13482.4963-.43384.9327-.87384 1.1979l-1.03588.6221c-1.059261.6355-1.059261 2.1711 0 2.8067l1.03588.6221c.44148.2652.73902.7016.87384 1.1979.00296.0089.00283.0186.00579.0289.13778.5008.09849 1.034-.15336 1.4873l-.58738 1.0561c-.6 1.08.16632 2.4099 1.40336 2.4306l1.22107.0203c.51703.0088.99551.2403 1.35995.6047l.01157.0116c.36593.3644.59297.8444.60185 1.3599l.02026 1.2182c.02074 1.2356 1.35345 2.0048 2.43345 1.4063l1.05617-.5874c.4548-.2519.9865-.2941 1.4872-.1563.0089.003.0172.0057.0261.0087.4963.1348.9327.4324 1.1979.8738l.6221 1.0359c.6355 1.0593 2.1711 1.0593 2.8067 0l.6221-1.0359c.2652-.4414.7016-.739 1.1979-.8738.0089-.003.0201-.0057.0289-.0087.5008-.1378 1.034-.0956 1.4873.1563l1.0562.5874c1.08.5999 2.4098-.1693 2.4305-1.4063l.0203-1.2182c.0089-.517.2403-.9955.6047-1.3599l.0116-.0116c.3644-.3659.8444-.5959 1.3599-.6047l1.2182-.0203c1.2356-.0207 2.0048-1.3506 1.4063-2.4306l-.5874-1.0561c-.2519-.4548-.294-.9865-.1563-1.4873.003-.0089.0058-.02.0087-.0289.1348-.4963.4324-.9327.8739-1.1979l1.0358-.6221c1.0593-.637 1.0593-2.1697 0-2.8067l-1.0358-.6221c-.4415-.2652-.7391-.7016-.8739-1.1979-.0029-.0089-.0057-.0201-.0087-.029-.1377-.5007-.0956-1.0339.1563-1.4872l.5874-1.05618c.6-1.08-.1693-2.4098-1.4063-2.43054l-1.2182-.02026c-.517-.00889-.9955-.24029-1.3599-.60474l-.0116-.01157c-.3659-.36444-.5958-.8444-.6047-1.35995l-.0203-1.21818c-.0207-1.23555-1.3505-2.00477-2.4305-1.40625l-1.0562.58738c-.4548.25185-.9865.29403-1.4872.15625-.0089-.00296-.0201-.00572-.029-.00868-.4963-.13482-.9327-.43384-1.1979-.87384l-.6221-1.035881c-.3178-.529629-.8604-.792859-1.4034-.792859zm5.926 10.3704c.3789 0 .7578.1444 1.0474.434.5793.5793.5793 1.5156 0 2.0949l-6.7564 6.7564c-.2785.2785-.6548.434-1.0474.434s-.7704-.1555-1.0475-.434l-3.6342-3.6343c-.57927-.5792-.57927-1.5156 0-2.0949.5793-.5792 1.5156-.5792 2.0949 0l2.5868 2.5868 5.7089-5.7089c.2896-.2896.6686-.434 1.0475-.434zm-16.66959 17.8009-3.26967 7.8327 5.74363-.5034 3.82523 4.4994 3.1713-7.5955c-1.1037-.3155-2.0589-1.0235-2.6707-2.0457l-.1534-.2546-.2575.1446c-.6844.3793-1.45461.5788-2.2309.5788-1.82815 0-3.41873-1.0933-4.15799-2.6563zm21.48729 0c-.7393 1.563-2.3299 2.6591-4.158 2.6591-.7748 0-1.5465-.2008-2.2309-.5816l-.2575-.1446-.1534.2546c-.6133 1.0207-1.5699 1.7316-2.6736 2.0457l3.1742 7.5955 3.8252-4.4965 5.7436.5005z" fill="#750806"/></svg>