<svg fill="none" height="40" viewBox="0 0 31 40" width="31" xmlns="http://www.w3.org/2000/svg"><path d="m1.44934 0c-.489497 0-.888732.399235-.888732.888729v35.549171c0 .4929.399235.8887.888732.8887h6.2211v1.7775c-.00348.3367.18399.6457.48603.7984.29855.1528.6596.125.93039-.0764l3.02724-2.2773 3.0272 2.2773c.2708.2014.6319.2292.9304.0764.302-.1527.4895-.4617.486-.7984v-1.7775h13.331c.4929 0 .8887-.3958.8887-.8887v-35.549171c0-.489494-.3958-.888729-.8887-.888729zm5.33237 10.6647h17.77459v1.7775h-17.77459zm0 5.3324h17.77459v1.7775h-17.77459zm5.33239 7.1932c.6214 0 1.0727.3541 1.2498.8887.0902.0902.0763.0833.1666.0833.2048-.125.4478-.1666.6943-.1666.2847 0 .5937.0868.8332.2777.4444.3541.5103.8818.3333 1.4164 0 .0903.1111.0799.1111.1666.5346.0903.9651.5486 1.0553 1.0832.0903.5346-.1666 1.0658-.611 1.3331v.2499c.2673.3541.3507.9721.0833 1.4164-.2326.3889-.6769.6388-1.1386.6388-.0695 0-.125.0104-.1945 0 0 .0903-.1041.0799-.1944.1667 0 .5346-.243.9894-.7776 1.1664-.1771.0868-.2673.0833-.4444.0833-.3541 0-.7325-.177-.9998-.4443h-.3333c-.2603.2603-.6179.4166-.9998.4166-.1388 0-.302-.007-.4443-.0556-.4444-.177-.77768-.6318-.77768-1.1664 0-.0903-.10415-.0799-.19441-.1667-.06942.0104-.12497 0-.19441 0-.46172 0-.90608-.2499-1.13868-.6388-.26731-.4443-.27079-.972.08332-1.4164v-.2499c-.44437-.2673-.70126-.7985-.611-1.3331s.52074-.9964 1.05536-1.0832c0-.0902.11109-.0798.11109-.1666-.17705-.5346-.11109-1.0588.33328-1.4164.23954-.1909.54851-.2777.83313-.2777.2465 0 .4895.0416.6944.1666.0902-.0903.0763-.0833.1666-.0833.1771-.5346.7152-.8887 1.2498-.8887zm-2.66621 10.137c.13539.0799.27079.1632.4166.2222.03124.0139.05207.0174.08331.0278.3194.1076.6631.1666.9998.1666.3958 0 .7707-.0764 1.1387-.2222.3749.1597.7985.25 1.1942.25.309 0 .6527-.0174 1.1109-.2222.132-.0521.2674-.1284.3889-.1944v3.9715l-2.1385-1.6108c-.3125-.2326-.743-.2326-1.0554 0l-2.13851 1.6108z" fill="#750806"/></svg>