<svg fill="none" height="50" viewBox="0 0 51 50" width="51" xmlns="http://www.w3.org/2000/svg"><path d="m19.356 0c-10.69021 0-19.356 8.66579-19.356 19.356 0 10.6902 8.66579 19.356 19.356 19.356 4.2333 0 8.1334-1.3758 11.3147-3.6826l14.9706 14.9706 3.2201-3.2201-14.8328-14.8327c2.6693-3.1169 4.3707-7.0884 4.6255-11.4526h-4.025l-7.303 7.303-13.6631-13.6631-6.36003 6.3601h-4.96798c-.02505-.378-.05782-.7538-.05782-1.1386s.03277-.7606.05782-1.1386h4.02509l7.30292-7.3029 13.6631 13.663 6.3601-6.3601h4.9679c-.5932-10.15732-8.9928-18.2174-19.2981-18.2174zm19.2981 18.2174c.0217.3792.0579.7537.0579 1.1386 0 .3848-.0362.7594-.0579 1.1386h11.4437v-2.2772z" fill="#750806"/></svg>