<svg fill="none" height="51" viewBox="0 0 51 51" width="51" xmlns="http://www.w3.org/2000/svg"><path d="m50.4051 27.4604c0 1.8351-5.3792 4.3987-14.1372 4.3987-2.1383 0-4.1821-.1615-6.0881-.4726.0315-.1732.067-.3426.067-.5198v-5.009c1.906.2914 3.9222.445 6.0211.445 5.4816 0 11.1995-1.1066 14.1372-3.1976zm-22.1745 3.4063c0 1.8272-5.3596 4.383-14.086 4.383-8.72651 0-14.0821-2.5518-14.0821-4.383v-4.3317c2.92983 2.0832 8.62014 3.1819 14.0821 3.1819 5.4619 0 11.1522-1.0987 14.086-3.1819zm-28.1681 3.2134c2.93377 2.0832 8.62408 3.1858 14.0821 3.1858 5.4619 0 11.1522-1.1026 14.086-3.1858v4.3317c0 1.8312-5.3596 4.3829-14.086 4.3829-8.72256 0-14.0821-2.5517-14.0821-4.3829zm50.3426-21.765c0 1.8351-5.3792 4.3987-14.1372 4.3987s-14.1372-2.5636-14.1372-4.3987v-4.35534c2.9377 2.09104 8.6516 3.19764 14.1372 3.19764 5.4816 0 11.1995-1.1066 14.1372-3.19764zm-14.1372-11.975256c8.758 0 14.1372 2.563596 14.1372 4.398676 0 1.83902-5.3792 4.40261-14.1372 4.40261s-14.1372-2.56359-14.1372-4.40261c0-1.83508 5.3753-4.398676 14.1372-4.398676zm-14.1372 15.188656c2.9377 2.095 8.6516 3.2015 14.1372 3.2015 5.4816 0 11.1995-1.1066 14.1372-3.2015v4.3593c0 1.835-5.3792 4.3986-14.1372 4.3986-2.0989 0-4.1821-.1693-6.0841-.4765.0275-.1614.063-.3189.063-.4883 0-2.7014-3.5166-4.5876-8.1161-5.5839zm-7.9861 3.4102c8.7264 0 14.086 2.5518 14.086 4.3829 0 1.8273-5.3596 4.379-14.086 4.379-8.72651 0-14.0821-2.5517-14.0821-4.379 0-1.8311 5.35954-4.3829 14.0821-4.3829zm0 31.4011c-8.72256 0-14.0821-2.5518-14.0821-4.3829v-4.3317c2.92983 2.0832 8.62014 3.1858 14.0821 3.1858 5.4619 0 11.1522-1.1026 14.086-3.1858v4.3317c0 1.8312-5.3596 4.3829-14.086 4.3829zm22.1233-10.908c-2.1265 0-4.1703-.1615-6.092-.4726.0354-.1811.0709-.3584.0709-.5474v-4.9775c1.8981.2874 3.9182.441 6.0211.441 5.4816 0 11.1995-1.1065 14.1372-3.1976v4.3554c0 1.8351-5.3792 4.3987-14.1372 4.3987z" fill="#750806"/></svg>