<svg fill="none" height="51" viewBox="0 0 42 51" width="42" xmlns="http://www.w3.org/2000/svg"><path d="m15.8943.0703125c-6.33035 0-11.48156 4.3378975-11.48156 9.6721375.00109 2.90445 1.56242 5.66175 4.20776 7.49065-.11539.5193-.40992 1.3849-1.15453 2.3962l-1.18004 1.6032 1.99014.0085h.02976c2.50597 0 4.28617-1.3321 5.06887-2.056.8197.1545 1.6661.2317 2.5196.2317 6.3303 0 11.4794-4.34 11.4794-9.67425 0-5.33424-5.1491-9.6721375-11.4794-9.6721375zm11.4007 3.1616775c1.4239 1.87025 2.2602 4.1057 2.2602 6.51046-.0022 4.09865-2.4127 7.71505-6.0661 9.84435 1.0799.3375 2.2423.5316 3.4593.5316.7174 0 1.4265-.062 2.1177-.1871.7153.6466 2.2557 1.7552 4.3992 1.7541h.0276l1.9902-.0085-1.1801-1.6032c-.5835-.7936-.8352-1.4782-.944-1.9114 2.2621-1.597 3.5933-3.982 3.5933-6.4935 0-4.56022-4.3034-8.28005-9.6573-8.43681zm-6.032 20.71141c-5.6435 0-7.1101 3.2365-7.1101 6.2596 0 .7359.2468 1.7823.421 2.4409-.2297.3614-.421.8881-.421 1.6414 0 1.4457.621 2.2196 1.3863 2.543.2591.9612.7822 1.9566 1.3353 2.5684v1.7265c-.3658.6292-1.4456 1.0891-2.5898 1.5692-2.2491.9525-5.32887 2.2576-5.5749 6.2213-.01741.3015.08876.5954.29342.8164.20684.2177.49257.3402.7952.3402h21.77238c.3016 0 .5863-.1234.791-.3444.2079-.2167.3141-.5107.2934-.8122-.2439-3.9855-3.7375-5.2817-6.2936-6.2299-1.2628-.4681-2.5679-.9529-2.9554-1.5691v-1.7222c.553-.6086 1.0707-1.602 1.3352-2.5621.7653-.3233 1.3863-1.0973 1.3863-2.543 0-.7522-.1934-1.2821-.4231-1.6435.1742-.6587.4231-1.7029.4231-2.4388 0-2.322-.7491-4.8114-3.5763-5.1391l-.3529-.591c-.196-.3277-.5534-.5316-.9355-.5316zm-9.9698.3615c-5.06975 0-6.38719 2.9077-6.38719 5.6238 0 .6608.22067 1.602.37634 2.1943-.20684.3244-.37634.7995-.37634 1.4756 0 1.2987.55583 1.995 1.24384 2.2856.23296.8633.70489 1.7561 1.2013 2.307v1.5521c-.32876.565-1.30054.9775-2.3282 1.4097-2.02157.8556-4.786238 2.0289-5.0072277 5.5898-.01632928.27.0786307.5322.2615187.7314.187243.1949.443341.3062.714407.3062h5.662102c.77401-4.5461 4.63915-6.1851 6.78265-7.093.3614-.1514.8778-.3687 1.2523-.5592-.3788-.5541-.7095-1.1943-.9653-1.8583-1.1224-.8688-1.7477-2.2667-1.7477-3.9846 0-.6727.1016-1.2954.3019-1.8625-.2036-.8916-.3019-1.6232-.3019-2.2198 0-1.8496.4351-3.4303 1.2374-4.7138-.2351-.0762-.4846-.1428-.7633-.1744l-.3168-.5315c-.1753-.2939-.4958-.4784-.8398-.4784zm19.8673 0c-1.8681 0-3.224.3965-4.195 1.0312.86 1.2356 1.3395 2.8791 1.3395 4.8648 0 .5965-.0995 1.3281-.3019 2.2197.2013.5672.3019 1.1898.3019 1.8626 0 1.7189-.6254 3.12-1.7499 3.9888-.246.6379-.5615 1.2504-.9185 1.786.4518.2025 1.0585.4279 1.4798.5847 2.5833.958 6.7925 2.5208 7.5949 7.1377h5.711c.271 0 .5261-.1123.7101-.3104.1872-.1949.2833-.4583.2637-.7293-.2178-3.5805-3.3599-4.7438-5.6558-5.5962-1.1343-.4202-2.3062-.8556-2.6535-1.4097v-1.5479c.4964-.5465.9619-1.4394 1.1992-2.3027.688-.2906 1.246-.9869 1.246-2.2856 0-.6761-.1728-1.1501-.3785-1.4756.1568-.5922.3785-1.5324.3785-2.1943 0-2.0858-.674-4.3188-3.2149-4.6138l-.3168-.5316c-.1752-.2939-.4958-.4784-.8398-.4784z" fill="#750806"/></svg>