<svg fill="none" height="50" viewBox="0 0 65 50" width="65" xmlns="http://www.w3.org/2000/svg"><path d="m32.2581 0c-.1966 0-.3831.0302452-.5646.120968l-30.967694 15.483832c-.438503.2218-.725806.6805-.725806 1.1694s.287303.9476.725806 1.1693l4.435484 2.2178v18.7903c-1.49194.5393-2.58064 1.9506-2.58064 3.629 0 1.6432 1.9758 4.6623 2.82258 5.8871l1.04838 1.5323 1.04839-1.5323c.84677-1.2248 2.8226-4.2439 2.8226-5.8871 0-1.6784-1.08873-3.0897-2.58066-3.629v-17.5l2.58066 1.2903v-3.3871c0-4.4758 6.4415-5.383 9.1935-5.7661 4.1482-.5746 9.2188-.6855 12.742-.6855s8.5937.1109 12.7419.6855c2.752.3831 9.1935 1.2903 9.1935 5.7661v3.3871l9.5968-4.7984c.4385-.2167.7258-.6804.7258-1.1693s-.2873-.9476-.7258-1.1694l-30.9677-15.483832c-.1815-.0907228-.368-.120968-.5645-.120968zm0 15.4839c-7.2279 0-19.3549.504-19.3549 3.8709v6.0081c2.6815-1.1442 8.1553-2.1371 19.3549-2.1371s16.6734.9929 19.3548 2.1371v-6.0081c0-3.3669-12.127-3.8709-19.3548-3.8709zm0 10.3226c-13.4073 0-18.9819 1.5776-19.3549 2.5806.0202 3.3568 12.1321 3.871 19.3549 3.871 7.0715 0 18.8054-.494 19.3145-3.6694.0151-.0756.0403-.126.0403-.2016-.3478-.9879-5.9173-2.5806-19.3548-2.5806z" fill="#750806"/></svg>