<svg fill="none" height="50" viewBox="0 0 50 50" width="50" xmlns="http://www.w3.org/2000/svg"><path d="m38 0v4h5.1875l-9.1875 9.1875-2.5938-2.5937-1.4062-1.43755-1.4062 1.43755-10.5938 10.5937-2.5938-2.5937-1.4062-1.4376-1.4062 1.4376-12.00005 12 2.8125 2.8124 10.59375-10.5937 2.5938 2.5937 1.4062 1.4376 1.4062-1.4376 10.5938-10.5937 2.5938 2.5937 1.4062 1.4376 1.4062-1.4376 10.5938-10.5937v5.1875h4v-12zm6 15v35h4v-35zm-14 5v30h4v-30zm7 0v30h4v-30zm-14 4v26h4v-26zm-7 6v20h4v-20zm-7 1v19h4v-19zm-7 7v12h4v-12z" fill="#750806"/></svg>