<svg fill="none" height="50" viewBox="0 0 53 50" width="53" xmlns="http://www.w3.org/2000/svg"><path d="m22.8603.00001095c-4.2018.09517135-7.2243 1.31325905-8.98 3.62361905-1.9877 2.61557-2.3385 6.51297-1.064 11.90497-.4518.5809-.8582 1.5108-.7521 2.7775.3216 2.3629 1.2199 3.3376 1.9528 3.7369.3358 1.9133 1.2644 4.0187 2.1943 5.0273v3.8971c-.6684 1.5053-2.8438 2.3748-5.35 3.378-4.22691 1.6912-9.48848 3.7957-9.85385 10.4456l-.064091 1.1538h24.957241l4.2838-4.286c-1.1551-1.9537-1.831-4.2225-1.831-6.6532 0-1.8597.3938-3.6256 1.0939-5.2304v-2.7049c.9244-1.002 1.8498-3.0918 2.19-4.9974.7789-.3829 1.7403-1.3555 1.9635-3.8223.1028-1.2296-.2348-2.1336-.7008-2.7177.7231-2.2634 1.9456-7.28987-.0705-10.62305-.9156-1.51509-2.3532-2.47175-4.2774-2.84806-1.0556-1.334583-3.0435-2.06177905-5.6918-2.06177905zm.0235 2.18784905c2.0686 0 3.5589.52146 4.0872 1.42723l.2671.45723.5256.07264c1.5063.21113 2.552.83399 3.1942 1.89728 1.4024 2.31803.6845 6.54016-.3547 9.45216l-.3461.8995.8674.4337c.0974.069.3605.4475.2949 1.2307-.1466 1.6179-.6587 2.0506-.7692 2.0703h-.9957l-.094.9893c-.198 2.0741-1.3549 4.217-1.7498 4.5145l-.5513.3141v5.2303c-.0186.4081-1.6004 1.6409-4.3756 1.6409-2.7228 0-4.3757-1.1398-4.3757-1.6409 0-.1662-.0423-.3204-.109-.4615v-4.1321l.0214-.6217-.5513-.3141c-.4157-.3118-1.5732-2.4533-1.7712-4.5274l-.015-.9807h-.9956c-.1553-.0612-.6436-.5803-.8482-2.0724-.0766-.9167.3921-1.2969.391-1.2969l.6431-.4295-.1902-.7478c-1.2711-5.0167-1.0958-8.49919.5363-10.64437 1.3335-1.75247 3.7857-2.6828 7.2644-2.76047zm18.5967 21.87844c-6.0286 0-10.9393 4.9106-10.9393 10.9393 0 2.6216.931 5.0292 2.4763 6.916l-6.5315 6.5315 1.5469 1.5469 6.5315-6.5315c1.8869 1.5454 4.2945 2.4763 6.9161 2.4763 6.0286 0 10.9392-4.9106 10.9392-10.9392 0-6.0287-4.9106-10.9393-10.9392-10.9393zm0 2.1879c4.8462 0 8.7513 3.9051 8.7513 8.7514 0 4.8462-3.9051 8.7513-8.7513 8.7513s-8.7514-3.9051-8.7514-8.7513c0-4.8463 3.9052-8.7514 8.7514-8.7514z" fill="#750806"/></svg>