<svg width="56" height="55" viewBox="0 0 56 55" fill="none" xmlns="http://www.w3.org/2000/svg">
<g id="Dribbble_black" clip-path="url(#clip0_364_307)">
<path id="Vector" fill-rule="evenodd" clip-rule="evenodd" d="M0.5 27.5C0.5 12.3122 12.8122 0 28 0C43.1878 0 55.5 12.3122 55.5 27.5C55.5 42.6878 43.1878 55 28 55C12.8122 55 0.5 42.6878 0.5 27.5ZM42.6667 27.4797C42.6667 26.4871 42.5657 25.4944 42.3674 24.531C42.174 23.5885 41.8875 22.6616 41.5122 21.7784C41.1456 20.9089 40.6908 20.0708 40.1595 19.2898C39.6359 18.5131 39.0329 17.7864 38.3704 17.1221C37.7066 16.4613 36.976 15.8613 36.2004 15.3364C35.4169 14.8065 34.5782 14.3523 33.7088 13.9833C32.8228 13.6093 31.8954 13.3225 30.9536 13.1308C29.9868 12.9335 28.9928 12.8333 27.9994 12.8333C27.0053 12.8333 26.0113 12.9335 25.0459 13.1308C24.1027 13.3225 23.1752 13.6092 22.29 13.9833C21.4206 14.3524 20.5812 14.8065 19.7977 15.3364C19.0221 15.8613 18.2916 16.4613 17.6291 17.1221C16.966 17.7864 16.3629 18.5131 15.8386 19.2898C15.3101 20.0708 14.8545 20.9088 14.4865 21.7784C14.1111 22.6616 13.824 23.5885 13.6299 24.531C13.4336 25.4944 13.3333 26.4871 13.3333 27.4797C13.3333 28.4716 13.4336 29.462 13.6299 30.4276C13.824 31.3701 14.1111 32.2955 14.4864 33.1801C14.8545 34.049 15.31 34.8865 15.8386 35.6674C16.3628 36.4435 16.9659 37.1714 17.6291 37.8351C18.2915 38.4959 19.0221 39.0973 19.7977 39.6229C20.5811 40.1507 21.4205 40.6048 22.29 40.9732C23.1751 41.3465 24.1027 41.6325 25.0458 41.8256C26.0112 42.0245 27.0053 42.126 27.9993 42.126C28.9926 42.126 29.9868 42.0245 30.9535 41.8256C31.8953 41.6325 32.8228 41.3465 33.7088 40.9732C34.5782 40.6048 35.4169 40.1507 36.2003 39.6229C36.9759 39.0972 37.7065 38.4959 38.3704 37.8351C39.0328 37.1714 39.6358 36.4435 40.1594 35.6674C40.6908 34.8865 41.1456 34.0491 41.5122 33.1801C41.8875 32.2955 42.174 31.3702 42.3674 30.4276C42.5657 29.462 42.6667 28.4716 42.6667 27.4797Z" fill="#BDC9D2"/>
<path id="Vector_2" fill-rule="evenodd" clip-rule="evenodd" d="M30.6942 24.4831C35.6395 22.4663 37.6484 19.5678 37.6721 19.5342C39.4295 21.6647 40.4917 24.3858 40.5203 27.3508C40.339 27.3137 36.1 26.404 31.7972 26.9447C31.7091 26.7302 31.6189 26.5156 31.5264 26.2967C31.2664 25.6867 30.985 25.0796 30.6942 24.4831ZM34.9985 37.8522C34.871 37.0984 34.2034 33.4268 32.5605 28.9185C36.6034 28.2712 40.1077 29.379 40.3655 29.462C39.8083 32.9477 37.8109 35.957 34.9985 37.8522ZM30.2136 29.4977C31.9762 34.0719 32.7038 37.9022 32.8893 38.995C31.3861 39.6335 29.7338 39.9862 27.9992 39.9862C25.0944 39.9862 22.4274 38.9899 20.3009 37.3387C20.3271 37.2821 22.7404 32.0975 30.1306 29.525C30.1578 29.515 30.1858 29.507 30.2136 29.4977ZM36.2712 18.0926C36.2404 18.1383 34.4563 20.8501 29.7302 22.6194C27.5882 18.6918 25.2355 15.5753 25.0479 15.3235C25.9939 15.0961 26.9815 14.9731 27.9992 14.9731C31.1705 14.9731 34.0659 16.1508 36.2712 18.0926ZM28.3436 25.2999C28.7025 26.0021 29.0456 26.7145 29.36 27.4253C29.1952 27.4725 29.0291 27.5212 28.8658 27.5755C22.1065 29.7581 18.6788 35.8304 18.6831 35.8369C16.6878 33.622 15.4739 30.6927 15.4739 27.4797C15.4739 27.3452 15.4803 27.215 15.484 27.0806C15.7059 27.0892 21.8944 27.2278 28.3436 25.2999ZM22.655 16.1666C22.822 16.3891 25.1381 19.5278 27.306 23.3739C21.2922 24.9695 16.0726 24.9036 15.7425 24.9008C16.5553 21.0275 19.1622 17.8137 22.655 16.1666Z" fill="#BDC9D2"/>
</g>
<defs>
<clipPath id="clip0_364_307">
<rect width="55" height="55" fill="white" transform="translate(0.5)"/>
</clipPath>
</defs>
</svg>
