<svg width="56" height="55" viewBox="0 0 56 55" fill="none" xmlns="http://www.w3.org/2000/svg">
<g id="LinkedIN_black" clip-path="url(#clip0_364_305)">
<path id="Vector" fill-rule="evenodd" clip-rule="evenodd" d="M0.5 27.5C0.5 12.3122 12.8122 0 28 0C43.1878 0 55.5 12.3122 55.5 27.5C55.5 42.6878 43.1878 55 28 55C12.8122 55 0.5 42.6878 0.5 27.5ZM19.9339 22.7766H13.7018V41.5016H19.9339V22.7766ZM20.3445 16.9843C20.304 15.1484 18.9911 13.75 16.8591 13.75C14.7271 13.75 13.3333 15.1484 13.3333 16.9843C13.3333 18.7823 14.686 20.2209 16.7782 20.2209H16.818C18.9911 20.2209 20.3445 18.7823 20.3445 16.9843ZM42.4093 30.7653C42.4093 25.0139 39.3348 22.337 35.2338 22.337C31.9249 22.337 30.4435 24.1544 29.6164 25.4294V22.7772H23.3836C23.4657 24.5342 23.3836 41.5021 23.3836 41.5021H29.6164V31.0445C29.6164 30.4849 29.6569 29.9266 29.8216 29.5261C30.2721 28.408 31.2976 27.2504 33.0193 27.2504C35.2754 27.2504 36.1772 28.9675 36.1772 31.4837V41.5016H42.4091L42.4093 30.7653Z" fill="#BDC9D2"/>
</g>
<defs>
<clipPath id="clip0_364_305">
<rect width="55" height="55" fill="white" transform="translate(0.5)"/>
</clipPath>
</defs>
</svg>
