<svg fill="none" height="55" viewBox="0 0 55 55" width="55" xmlns="http://www.w3.org/2000/svg"><path d="m27.2988 50c12.5375 0 22.7012-10.1637 22.7012-22.7011 0-12.5375-10.1637-22.7012-22.7012-22.7012s-22.70114 10.1637-22.70114 22.7012c0 12.5374 10.16364 22.7011 22.70114 22.7011z" stroke="#c7c7c7" stroke-width="9"/><path d="m9.1087 27.3261c0-4.8316 1.9193-9.4652 5.3357-12.8817 3.4165-3.4164 8.0501-5.3357 12.8817-5.3357v-9.1087c-15.0908 0-27.3261 12.2353-27.3261 27.3261zm4.5543 12.0485c-2.9416-3.3234-4.56203-7.6103-4.5543-12.0485h-9.1087c0 6.9272 2.58459 13.2623 6.83152 18.0762z" fill="#750806"/></svg>