<svg fill="none" height="20" viewBox="0 0 20 20" width="20" xmlns="http://www.w3.org/2000/svg"><path d="m4.16667 0c-.45573 0-.83334.377604-.83334.833333v.833337h-2.499997c-.4834 0-.833333.34993-.833333.83333v2.91667h19.1667v-2.91667c0-.4834-.35-.83333-.8334-.83333h-2.5v-.833337c0-.455729-.3776-.833333-.8333-.833333h-.8333c-.4558 0-.8334.377604-.8334.833333v.833337h-7.49997v-.833337c0-.455729-.3776-.833333-.83333-.833333zm0 .833333h.83333v2.499997h-.83333zm10.00003 0h.8333v2.499997h-.8333zm-14.1667 5.416667v12.9167c0 .4834.349933.8333.833333.8333h17.499967c.4834 0 .8334-.3499.8334-.8333v-12.9167zm4.16667 2.5h2.08333v2.0833h-2.08333zm2.91666 0h2.08334v2.0833h-2.08334zm2.91667 0h2.0833v2.0833h-2.0833zm2.9167 0h2.0833v2.0833h-2.0833zm-8.75003 2.9167h2.08333v2.0833h-2.08333zm2.91666 0h2.08334v2.0833h-2.08334zm2.91667 0h2.0833v2.0833h-2.0833zm2.9167 0h2.0833v2.0833h-2.0833zm-8.75003 2.9166h2.08333v2.0834h-2.08333zm2.91666 0h2.08334v2.0834h-2.08334zm2.91667 0h2.0833v2.0834h-2.0833zm2.9167 0h2.0833v2.0834h-2.0833z" fill="#750806"/></svg>