<svg fill="none" height="16" viewBox="0 0 15 16" width="15" xmlns="http://www.w3.org/2000/svg"><path d="m14.1858 10.9067c-.525-.0125-1.1858-.0434-1.6033-.1167-.4517-.08-.995-.235-1.3775-.3542-.3-.0933-.6267-.0108-.8492.2109l-1.84747 1.8366c-1.27666-.6725-2.29916-1.4558-3.165-2.3266-.87083-.86587-1.65416-1.88837-2.32666-3.16503l1.83666-1.84834c.22167-.2225.30417-.54916.21084-.84916-.11834-.38167-.27417-.925-.35334-1.37667-.07416-.4175-.10416-1.07833-.1175-1.60333-.01083-.45417-.38083-.81417-.835-.81417h-2.924997c-.365 0-.833333.273333-.833333.83333 0 3.7825 1.53333 7.395 4.13833 10.02837 2.63334 2.605 6.24587 4.1383 10.02837 4.1383.56 0 .8333-.4683.8333-.8333v-2.925c0-.4542-.36-.8242-.8142-.835z" fill="#750806"/></svg>