<svg height="40" viewBox="0 0 138 40" width="138" xmlns="http://www.w3.org/2000/svg"><g fill="#fff"><path d="m81.50692 16.506786c-1.163925-1.114057-2.683502-1.678302-4.51236-1.678302-.110519 0-.223831 0-.337013.006546h-.018517c-.103988-.006546-.205307-.006546-.309417-.006546-1.697151 0-3.156075.564245-4.338524 1.683639-1.256043 1.18388-1.893387 2.686907-1.893387 4.466786 0 1.588727.489784 2.982303 1.458931 4.134666 1.075676 1.285454 2.567528 2.011879 4.442505 2.166183h.00267c.115845.009209.235695.018424.358071.02109.110641.006546.223953.009211.337127.006546.025063.002665.052666.002665.076393.002665 2.233055 0 3.985649-.772604 5.204895-2.300724.921692-1.156243 1.390412-2.515519 1.390412-4.039639 0-1.778545-.625359-3.282907-1.863114-4.46291zm-7.218132 9.40182c-.799309-1.052123-1.207504-2.681696-1.207504-4.846667 0-1.812847.260749-3.232727.778251-4.215029.655739-1.239273 1.632637-1.868124 2.904663-1.868124.685997 0 1.304825.184487 1.835396.545821.526695.362543.965157.9783 1.295624 1.83394.327934.841089.493782 2.110787.493782 3.775999 0 1.405455-.16198 2.561697-.480583 3.442423-.32515.901819-.793984 1.567635-1.387749 1.984244-.478035.334909-1.07579.503637-1.777534.503637-1.044198 0-1.868454-.388971-2.454346-1.156244z"/><path d="m63.15086 15.637939c.052662.121335.122379.384968.122379 1.281575v3.749576h-5.027065v-3.749576c0-.87418.067055-1.127274.126373-1.249939.114517-.250424.28048-.433697.491112-.543152.081592-.046181.172497-.084362.271278-.115997h-4.42411c.088123.028968.169838.064605.244888.106784.255421.143639.430584.319035.520046.523396.052655.121334.122502.38497.122502 1.281576v8.196604c0 .872852-.067181 1.127273-.125168 1.249939-.106648.247883-.26849.433698-.481911.544487-.081592.046181-.172382.084366-.27116.115999h4.424114c-.088245-.028967-.169838-.064606-.244888-.106787-.255543-.142303-.430584-.317697-.524036-.519397-.060646-.130541-.12904-.395514-.12904-1.284241v-4.080483h5.027065v4.080483c0 .874184-.067058 1.127273-.125046 1.249939-.114513.250547-.280479.435036-.491104.544487-.079052.046181-.168514.084366-.265953.115999h4.426644c-.08812-.028967-.171166-.064606-.244889-.105455-.259407-.143635-.437118-.320362-.526703-.523392-.057853-.130547-.122375-.392851-.122375-1.280243v-8.196728c0-.874059.067184-1.127273.126381-1.249817.114509-.250547.280472-.433818.491104-.54315.079048-.046184.168632-.084488.265953-.116125h-4.426651c.088123.029093.171165.064608.244888.105578.259419.143636.437119.320364.526703.523395z"/><path d="m96.161789 15.499516c.260742.308483.387123.850425.387123 1.657333v5.992241l-.409515-.495758-6.309632-7.644242h-3.715706c.09224.026303.176499.059273.251542.096241.240905.120001.502983.352002.799194.710667l.275154.329577.051445.060606v8.873092c0 .729092-.158096 1.239269-.484573 1.560971-.180374.178058-.425255.305938-.738663.386301h2.683365c-.222489-.071152-.430458-.176606-.622811-.319029-.397529-.293938-.600303-.841091-.600303-1.628243v-8.544729l.408081.483759 8.659988 10.275881v-10.136124c0-.623516.057976-1.058668.175156-1.330303.123711-.28606.30275-.496969.533234-.628847.127708-.072487.314743-.135758.566162-.18982h-2.716301c.341011.096241.610954.260971.809723.491759z"/><path d="m112.462624 25.180727-4.547951-5.485939-.143463-.172728.179046-.138422 3.785553-2.921697c.947975-.73964 1.543183-1.164122 1.818337-1.297335.129043-.063274.275154-.114668.442444-.155516h-3.312836c.060516.015759.101303.032971.134247.048727.445106.218911.537224.528727.537224.750182 0 .391637-.345002.843881-1.086335 1.422666l-4.795364 3.740364-.373924.291395v-4.341575c0-.883394.073707-1.143152.136902-1.272364.114624-.242546.279136-.421938.488563-.531275.078926-.042179.167168-.077816.264626-.106784h-4.426773c.088249.028968.16983.064605.24488.106784.255425.143639.430588.319035.520172.523396.052651.121334.123711.38497.123711 1.281456v8.196724c0 .872852-.067184 1.127273-.126381 1.249939-.105316.247883-.268608.433698-.481911.544487-.081581.046181-.1725.084366-.271278.115999h4.435974c-.088249-.026302-.167168-.057938-.237022-.093573-.259285-.135761-.439774-.307153-.537239-.510305-.063179-.131758-.135567-.399393-.135567-1.306547v-3.503029l.081589-.065939.476707-.386303.180359-.146305.147453.177942 2.965302 3.592728c.821579.999393.926903 1.373817.926903 1.590061 0 .203028-.094796.382301-.275154.515513-.072396.054061-.173836.098911-.305535.135757h5.38926c-.172509-.054058-.341012-.127878-.504296-.222788-.492462-.292726-1.054626-.822664-1.719566-1.62303z"/><path d="m127.591896 24.83794-4.544319-9.959396-4.504486 9.685215c-.45298.980848-.829575 1.616361-1.149513 1.940727-.235695.238667-.518723.413941-.846642.522059h2.932381c-.279145-.051392-.405663-.105454-.482041-.14897-.36074-.20303-.551635-.536606-.551635-.962425 0-.296604.09346-.652603.28569-1.087757l.543892-1.21418.059181-.133213h4.870438l.059311.134422.686378 1.553215c.252991.573456.285683.677574.295364.718544.043587.134424.065369.26897.065369.39806 0 .254547-.105316.462787-.305061.602548-.085945.05806-.190049.104239-.311096.141093h4.56005c-.200943-.065943-.372833-.162184-.51448-.286065-.313522-.274303-.690003-.896606-1.15242-1.902545zm-3.862785-1.595274h-4.263001l.143456-.311151 1.982963-4.291514.213051-.461456.208214.46279 1.925949 4.291513.139206.309818h-.351059z"/><path d="m136.030472 15.668242c.1138-.250424.279632-.433695.490265-.543152.082306-.046181.173095-.084362.272354-.116h-4.424454c.088364.028969.169479.064606.244522.106789.255432.143637.430939.319029.520523.523396.052063.12133.123474.384967.123474 1.281574v8.196607c0 .872845-.066574 1.12727-.1259 1.249939-.105316.247876-.268738.433697-.481781.544482-.082306.046186-.173111.084366-.272354.116005h4.424454c-.088379-.028975-.169464-.06461-.244522-.106791-.255433-.142301-.430939-.317697-.524155-.519394-.055679-.121336-.129532-.384968-.129532-1.284241v-8.196607c0-.874184.06778-1.127272.127106-1.249939z"/><path d="m17.220343 22.168242c-.030264-.119999-.075053-.235999-.131585-.345454-.08171-.164848-.191022-.315153-.321273-.444364-.26208-.262303-.609621-.441696-.996748-.491757-.073721-.010547-.150106-.01588-.225158-.01588-.173832 0-.342337.026426-.500431.07394-.175041.052729-.337011.131758-.483121.234667-.063312.10012-.12517.201698-.183033.304483-.013194.019758-.025057.042185-.03692.063275-.192231.336244-.368606.681696-.525369 1.03903v.002544c-.106647.238668-.204094.482546-.292341.730425-.036801.098911-.071059.199152-.102653.297941-.055323.164848-.105316.333574-.15277.502422-.267283.962426-.409519 1.976244-.409519 3.024487 0 2.333574.7084 4.501091 1.919774 6.300724.230482.342789.480578.672485.746651.986183.048665-.068481-.1449-1.032242-.251547-1.459511-.225158-.887275-.343668-1.81673-.343668-2.772609 0-1.584729.325268-3.091757.915157-4.460242.26329-.614425.579357-1.19976.945421-1.749576.203974-.311152.510842-.950667.435789-.975638.031596-.130544.048664-.267635.048664-.408725 0-.150303-.018402-.295395-.05532-.433819z"/><path d="m29.290621 23.618425c-.031594-.100242-.065851-.200363-.102654-.297939-.088245-.247879-.185692-.491758-.292341-.730425v-.002668c-.156641-.357212-.333137-.701334-.525368-1.038908-.011861-.021092-.023727-.042181-.03692-.063275-.057865-.102787-.119723-.204361-.183033-.304603-.146109-.102789-.309408-.18194-.483122-.234669-.158094-.047392-.326601-.073818-.500429-.073818-.076386 0-.152649.005333-.225159.015879-.387125.050062-.734669.228002-.996748.491758-.129042.129211-.238232.279516-.321274.444244-.05653.109454-.101322.225453-.131584.345454-.035589.139757-.055321.284849-.055321.433816 0 .141091.017069.278182.048664.408728-.075052.024971.231816.664486.435912.975638.36594.551031.68201 1.136484.945297 1.749576.58856 1.368481.915157 2.875513.915157 4.460241 0 .957213-.118509 1.885333-.343666 2.772608-.106649.427269-.300213 1.39103-.251547 1.459511.266072-.313694.516167-.643391.746651-.986179 1.211372-1.799637 1.919775-3.967152 1.919775-6.300728 0-1.048241-.142237-2.06206-.409521-3.024485-.04612-.168848-.097448-.336241-.152769-.502424z"/><path d="m26.617659 14.022909c.385793-.494425.784662-.982305 1.149395-1.491152.55442-.779234 1.099519-1.565017 1.369466-2.506385.150107-.524741.076264-.917626-.31207-1.32502-.96782-1.01257-1.93031-2.036995-2.809876-3.128659-.524036-.647342-1.0534-1.303924-1.372013-2.073898 0 0-.180368-.497044-.186905-.515503-.840105-.217541-2.230514-.328293-3.100882-.334884-.870368.006591-2.26078.116024-3.100885.334884-.006536.018459-.186905.515503-.186905.515503-.318611.769974-.847973 1.426556-1.372009 2.073898-.879569 1.091664-1.840729 2.116089-2.809876 3.128659-.389667.407394-.462178.800279-.312074 1.32502.269949.941368.81505 1.727151 1.369469 2.506385.364612.508847.762268.996727 1.149394 1.491152.388459.496969.462182 1.008608.223828 1.616366-.272488.696119-.588558 1.371151-.912375 2.039634l.039464.079029c1.292962 1.239396 2.260778 2.791153 2.803216 4.506424.558295 1.739031.643879 3.690304.263409 5.478182-.104105.490427-.036919 1.003275.205307 1.444971l.009321.011881v.002665s0 .006546.002543.006546c.088247.159515.175161.31903.254209.48521 1.258705 2.508972 1.431208 5.757576.419932 8.423393 0 0-.002543 0-.002543.002671-.205425.557693-.459515 1.100967-.757183 1.613815.708399.162186 1.967226.257095 2.71509.266304.747862-.009209 2.006689-.104118 2.714968-.266304-.297549-.512848-.551636-1.054787-.757063-1.613815 0-.002671-.002663-.002671-.002663-.002671-1.011152-2.665817-.839987-5.914421.420053-8.423393.079047-.16618.165963-.325695.254088-.48521.002663 0 .002663-.002669.002663-.006546v-.002665l.009201-.011881c.242347-.441696.30941-.954544.205427-1.444971-.380471-1.787878-.293553-3.739151.26341-5.478182.542435-1.715271 1.510252-3.267028 2.803215-4.506424l.039463-.079029c-.325149-.668483-.639886-1.343515-.912494-2.039634-.239565-.607758-.165842-1.119397.223827-1.616366z"/><path d="m17.095295 3.012642c-.001331-.017136-.1817-1.691563-.30687-2.485256-.045999-.290058-.281688-.511555-.560834-.526055-.187027.027687-.387128.063286-.586018.104161l-.030262.002632c-.027601.007911-.080259.019779-.134247.031639l-.331806.069885c-1.959237.41135-7.912085 1.662544-14.715474 5.849892-.005267.017139-.009216.034279-.014481.051418-.07242.25314-.135623.518143-.190925.793697.921691-.382339 1.997434-.846435 2.600482-1.106155.267296-.114719.441104-.189869.463486-.199093.167223-.063286.322581-.002628.380517.146351.032926.084374.018436.148979 0 .18853-.042126.090973-.130349.12262-.183019.142391-.09085.035599-1.894728.842484-3.381285 1.535973-.184339 1.35536-.123771 2.760813.172487 4.081882.296258-.193807.62807-.412668.978306-.644714 1.601115-1.056076 3.593278-2.371868 4.320103-2.718622.007892-.003948.017115-.009222.026328-.015818.051351-.031633.135616-.085695.238328-.056688.043446.011865.102701.043514.144828.125246.050044.098886.061895.242594-.165903.359939-.293613.166123-3.480032 2.168824-5.372135 3.607277.042134.146302.086902.292603.13562.435028.019751.044848.04872.101578.076371.158181l.0158.034305c.518781 1.059998 1.20741 2.033091 2.048787 2.893938 1.709081-1.570183 5.764513-4.868934 6.043649-5.065382l.134308-.093612.183019.305879-.075052.084387c-.084265.093597-.605675.566923-1.597157 1.466063-1.34567 1.219635-3.167983 2.871635-4.146282 3.823515 1.086278.97297 2.372692 1.745573 3.738105 2.242664.05267-.071272.107967-.142422.172488-.224121.853227-1.063999 3.840818-4.180847 3.840818-4.180847s-.326539.85309-1.905272 2.841333c-.501653.630182-1.017809 1.280121-1.410177 1.791758 1.036234.30315 2.090917.45091 3.156121.446909.072424 0 .239646-.007878.625441-.046181 1.383802-2.361334 2.280559-3.245939 2.280559-3.245939s-.69 1.529331-1.532647 3.165575c.5451-.06206 1.000621-.122668 1.0626-.13588.214626-.046061.43579-.102787.693873-.177937.150106-.319034.302875-.636852.456853-.954549l.267284-.57491c.143569-.29527.29101-.603755.435912-.921573.121051-.271515.236899-.547152.347541-.826668.151437-.386301.1633-.717211.036922-1.038908-.01719-.024971-.029053-.043514-.043458-.061939l-.287017-.365214c-.292341-.370422-.596547-.75418-.882232-1.153574-.323935-.453577-.766383-1.074569-1.104725-1.773332-.192231-.363892-.334468-.711952-.433248-1.060026-.096116-.336207-.101321-.615708-.015737-.879395.052658-.384981.240895-.751512.568827-1.094301.916368-.958496 1.885515-1.986885 2.767626-3.081188.474041-.585381.963821-1.190544 1.242969-1.844487l-.240896-.16085-.00787-.071198z"/><path d="m39.243565 6.087212c-.073838-.026364-.161961-.058014-.202881-.150303-.018399-.039551-.032807-.104145 0-.188534.057987-.147659.213417-.208313.380588-.145027.023728.009235.196228.083061.463509.199089.602966.259735 1.67876.722496 2.600456 1.104847-.055321-.275551-.118511-.540558-.189567-.789746-.005326-.019767-.010537-.03823-.015862-.05669-6.804729-4.187359-12.756161-5.438549-14.715399-5.849899l-.331802-.069874c-.053991-.013183-.10665-.025047-.16197-.035599-.20143-.04087-.401655-.076469-.603085-.105476-.264622.015823-.500309.23732-.546432.527378-.125048.79369-.305415 2.468113-.306744 2.485252l-.007994.071187-.240894.16085c.277817.651306.767595 1.257797 1.24297 1.844498.882232 1.095611 1.851259 2.12268 2.767746 3.081175.32781.342802.514839.70932.574035 1.119358.079046.238641.073719.518142-.022396.854339-.100109.349392-.242227.697451-.435789 1.063986-.334469.689541-.761059 1.288097-1.103395 1.770645-.279149.391636-.578024.768604-.866374 1.133816l-.302875.38509c-.017069.021091-.031595.043396-.04612.064485-.125049.309941-.114517.64473.039583 1.036364.10919.279518.22637.555031.347544.828001.143568.315029.29101.623636.43458.920244l.164507.338785-.005203.011879.111852.232123c.151438.315031.304205.63018.45298.947876.258084.073822.479245.130546.69254.178062.061979.01309.5175.07382 1.062603.135758-.84265-1.636242-1.532648-3.164242-1.532648-3.164242s.897968.884605 2.280509 3.244606c.387127.038303.55309.046181.624148.046181 1.053396.007879 2.121202-.143635 3.156084-.446906-.393662-.511518-.909832-1.161579-1.410145-1.791759-1.578766-1.98691-1.905243-2.841213-1.905243-2.841213s2.987576 3.11673 3.840756 4.180729c.068515.085693.125168.159513.1725.224119 1.365475-.49709 2.651902-1.269699 3.738102-2.242668-.979557-.953211-2.805877-2.607878-4.152828-3.830057-.987549-.895188-1.50626-1.367188-1.590633-1.459479l-.07626-.085697.185574-.304571.133033.093613c.28048.196447 4.337197 3.497829 6.043671 5.065464.84132-.859633 1.529987-1.832604 2.048698-2.894061l.015858-.034179c.028931-.056729.056652-.113455.081589-.171395.044792-.131879.088249-.275634.130371-.421939-1.897373-1.441056-5.079849-3.441113-5.34713-3.594061-.254093-.13184-.240894-.274231-.190903-.373114.040795-.081745.101441-.113382.14357-.125252.098656-.027685.186901.025055.23835.056694.009201.005272.018402.011868.0276.015816.725467.346754 2.714973 1.658594 4.313469 2.713346.352867.233359.687336.453539.984882.648669.296337-1.321066.355534-2.726523.172504-4.081879-1.48653-.693493-3.289123-1.500378-3.36018-1.528065z"/></g></svg>