<svg fill="none" height="59" viewBox="0 0 203 59" width="203" xmlns="http://www.w3.org/2000/svg"><g fill="#fff"><path d="m120.381 24.3474c-1.719-1.6432-3.963-2.4756-6.664-2.4756-.164 0-.331 0-.498.0098h-.027c-.154-.0098-.304-.0098-.457-.0098-2.507 0-4.662.8324-6.408 2.4834-1.855 1.7463-2.797 3.9633-2.797 6.5886 0 2.3434.724 4.3989 2.155 6.0986 1.589 1.896 3.792 2.9676 6.561 3.1951h.004c.171.0136.348.0272.529.0311.164.0097.331.0136.498.0097.037.0039.078.0039.113.0039 3.298 0 5.886-1.1396 7.687-3.3935 1.362-1.7055 2.054-3.7104 2.054-5.9585 0-2.6234-.924-4.8423-2.752-6.5828zm-10.661 13.8676c-1.18-1.5518-1.783-3.9555-1.783-7.1487 0-2.6739.385-4.7684 1.149-6.2171.969-1.8281 2.412-2.7557 4.29-2.7557 1.013 0 1.927.2723 2.711.8051.778.5348 1.426 1.443 1.914 2.7051.484 1.2407.729 3.1134.729 5.5696 0 2.073-.239 3.7785-.71 5.0776-.48 1.3302-1.172 2.3122-2.049 2.9267-.706.494-1.589.7429-2.626.7429-1.542 0-2.759-.5737-3.625-1.7055z"/><path d="m93.2702 23.0661c.0777.1789.1808.5678.1808 1.8902v5.5307h-7.4248v-5.5307c0-1.2893.0992-1.6627.1867-1.8436.1692-.3695.4142-.6398.7253-.8012.1206-.068.2548-.1244.4006-.1711h-6.5341c.1303.0428.2508.0953.3617.1575.3773.212.6359.4706.7682.772.0777.179.1808.5679.1808 1.8903v12.0901c0 1.2874-.0992 1.6627-.1847 1.8436-.1576.3656-.3968.6398-.7118.8032-.1206.068-.2547.1244-.4006.1711h6.5342c-.1303-.0428-.2509-.0953-.3617-.1575-.3773-.2101-.636-.4687-.774-.7662-.0895-.1926-.1906-.5834-.1906-1.8942v-6.0188h7.4248v6.0188c0 1.2894-.0992 1.6627-.1847 1.8436-.1692.3695-.4143.6417-.7254.8032-.1167.068-.2489.1244-.3928.1711h6.538c-.1303-.0428-.2528-.0953-.3617-.1556-.3831-.212-.6456-.4726-.7779-.772-.0855-.1926-.1808-.5795-.1808-1.8883v-12.0902c0-1.2893.0992-1.6627.1867-1.8435.1692-.3695.4142-.6398.7253-.8013.1167-.068.249-.1244.3929-.1711h-6.5381c.1303.0428.2528.0953.3617.1556.3831.212.6457.4726.7779.772z"/><path d="m142.026 22.8618c.385.4551.571 1.2544.571 2.4445v8.8387l-.605-.7313-9.319-11.2753h-5.487c.136.0389.26.0875.371.142.356.177.743.5192 1.18 1.0482l.407.4862.076.0894v13.0878c0 1.0754-.234 1.828-.716 2.3025-.266.2625-.628.4512-1.091.5698h3.963c-.328-.105-.636-.2606-.919-.4706-.588-.4337-.887-1.2407-.887-2.4017v-12.6036l.603.7137 12.79 15.157v-14.9508c0-.9199.085-1.5616.258-1.9622.183-.422.448-.7332.788-.9276.189-.107.465-.2003.836-.2801h-4.012c.504.142.903.3851 1.196.7254z"/><path d="m166.101 37.1417-6.717-8.0918-.212-.2548.264-.2042 5.591-4.3094c1.4-1.091 2.28-1.7172 2.686-1.9136.191-.0933.406-.1692.653-.2295h-4.892c.089.0234.149.0486.198.072.657.3228.793.7798.793 1.1065 0 .5776-.509 1.2446-1.604 2.0983l-7.083 5.5171-.552.4298v-6.4039c0-1.3029.109-1.686.202-1.8766.17-.3578.413-.6223.722-.7837.116-.0622.247-.1147.391-.1575h-6.538c.13.0428.25.0953.361.1575.378.212.636.4706.769.772.077.1789.182.5679.182 1.8903v12.0901c0 1.2874-.099 1.6627-.186 1.8436-.156.3656-.397.6398-.712.8031-.121.0681-.255.1245-.401.1712h6.552c-.13-.0389-.247-.0856-.35-.1381-.383-.2003-.65-.4531-.794-.7526-.093-.1945-.2-.5892-.2-1.9272v-5.167l.121-.0973.704-.5698.266-.2158.218.2625 4.379 5.2993c1.214 1.4741 1.369 2.0264 1.369 2.3453 0 .2995-.14.564-.406.7604-.107.0797-.257.1458-.451.2003h7.959c-.254-.0798-.503-.1887-.744-.3287-.728-.4317-1.558-1.2135-2.54-2.3939z"/><path d="m188.445 36.636-6.711-14.6902-6.653 14.2857c-.669 1.4469-1.225 2.3842-1.697 2.8626-.348.352-.767.6106-1.251.7701h4.331c-.412-.0759-.599-.1556-.712-.2198-.533-.2994-.815-.7915-.815-1.4196 0-.4375.139-.9626.422-1.6044l.804-1.791.087-.1964h7.194l.087.1983 1.013 2.2909c.374.8459.422.9995.438 1.0598.064.1984.095.3967.095.5873 0 .3753-.155.6826-.449.8887-.128.0856-.282.1537-.461.2081h6.736c-.297-.0972-.552-.2392-.76-.422-.463-.4045-1.019-1.3224-1.702-2.8062zm-5.703-2.3531h-6.297l.212-.4589 2.928-6.33.315-.6806.308.6826 2.845 6.3299.204.457h-.517z"/><path d="m200.909 23.1108c.169-.3695.414-.6398.725-.8012.121-.0681.255-.1245.401-.1712h-6.534c.13.0428.251.0953.361.1575.378.212.636.4707.769.7721.077.1789.182.5678.182 1.8902v12.0902c0 1.2874-.099 1.6627-.186 1.8435-.156.3656-.397.6398-.712.8032-.121.0681-.255.1245-.401.1711h6.534c-.13-.0428-.25-.0953-.361-.1575-.378-.21-.636-.4687-.774-.7662-.082-.1789-.191-.5678-.191-1.8941v-12.0902c0-1.2893.099-1.6627.187-1.8435z"/><path d="m25.4335 32.698c-.0447-.177-.1109-.3481-.1945-.5095-.1205-.2431-.282-.4648-.4745-.6554-.387-.387-.9004-.6514-1.4721-.7253-.1089-.0156-.2217-.0234-.3325-.0234-.2567 0-.5057.0389-.739.1089-.2587.0778-.4979.1945-.7137.3462-.0934.1478-.1848.2975-.2703.4492-.0195.0292-.037.0622-.0545.0934-.2839.4958-.5445 1.0054-.7759 1.5324v.0039c-.1575.352-.3015.7117-.4318 1.0773-.0544.1459-.105.2937-.1516.4395-.0817.2431-.1556.492-.2256.7409-.3948 1.4197-.6048 2.9151-.6048 4.4612 0 3.4421 1.0462 6.6391 2.8353 9.2936.3404.5057.7098.9918 1.1027 1.4547.0719-.1011-.2139-1.5227-.3715-2.1528-.3325-1.3088-.5075-2.6798-.5075-4.0897 0-2.3375.4803-4.5603 1.3515-6.5789.389-.9062.8557-1.7696 1.3963-2.5806.3015-.4589.7546-1.4021.6437-1.4391.0467-.1925.072-.3947.072-.6028 0-.2217-.0273-.4356-.0817-.6398z"/><path d="m43.2605 34.8372c-.0467-.1478-.0973-.2956-.1517-.4395-.1303-.3656-.2742-.7254-.4317-1.0774v-.0039c-.2315-.527-.492-1.0346-.776-1.5324-.0175-.0311-.035-.0622-.0544-.0933-.0856-.1517-.177-.3015-.2703-.4493-.2159-.1516-.457-.2683-.7137-.3461-.2334-.07-.4823-.1089-.739-.1089-.1128 0-.2256.0078-.3326.0233-.5717.0739-1.0851.3365-1.4721.7254-.1906.1906-.352.4123-.4745.6554-.0836.1614-.1497.3325-.1945.5095-.0525.2061-.0816.42-.0816.6398 0 .208.0252.4103.0719.6028-.1108.037.3423.9801.6437 1.4391.5406.8129 1.0074 1.6763 1.3963 2.5806.8693 2.0186 1.3516 4.2414 1.3516 6.5789 0 1.4118-.1751 2.7809-.5076 4.0897-.1575.63-.4434 2.0516-.3714 2.1527.3928-.4628.7623-.949 1.1026-1.4546 1.7891-2.6545 2.8354-5.8516 2.8354-9.2937 0-1.546-.2101-3.0415-.6048-4.4611-.0681-.2489-.1439-.4959-.2256-.7409z"/><path d="m39.3127 20.6838c.5698-.7292 1.1591-1.4488 1.6978-2.1994.8187-1.1493 1.6238-2.3084 2.0224-3.6969.2217-.774.1128-1.3535-.4609-1.9544-1.4293-1.4935-2.8509-3.00454-4.1499-4.61475-.774-.95484-1.5558-1.9233-2.0264-3.059 0 0-.2664-.73314-.2761-.76037-1.2408-.32087-3.2943-.48423-4.5798-.49395-1.2854.00972-3.339.17113-4.5797.49395-.0098.02723-.2762.76037-.2762.76037-.4706 1.1357-1.2524 2.10416-2.0264 3.059-1.299 1.61021-2.7186 3.12125-4.1499 4.61475-.5757.6009-.6826 1.1804-.4609 1.9544.3986 1.3885 1.2037 2.5476 2.0225 3.6969.5386.7506 1.1259 1.4702 1.6977 2.1994.5737.7332.6826 1.4877.3306 2.3842-.4026 1.0268-.8693 2.0225-1.3477 3.0085l.0583.1166c1.9097 1.828 3.3391 4.1169 4.1403 6.647.8245 2.565.9509 5.4432.3889 8.0802-.1536.7234-.0544 1.4799.3034 2.1314l.0136.0175v.0039s0 .0097.0039.0097c.1303.2353.2586.4706.3753.7156 1.8591 3.7008 2.1139 8.4925.6204 12.4247 0 0-.0039 0-.0039.0039-.3034.8226-.6787 1.6238-1.1182 2.3803 1.0462.2392 2.9054.3792 4.01.3928 1.1045-.0136 2.9637-.1536 4.0099-.3928-.4395-.7565-.8148-1.5558-1.1182-2.3803 0-.0039-.0039-.0039-.0039-.0039-1.4935-3.9322-1.2407-8.7239.6204-12.4247.1167-.245.245-.4803.3753-.7156.0039 0 .0039-.0039.0039-.0097v-.0039l.0136-.0175c.3578-.6515.457-1.408.3034-2.1314-.562-2.637-.4337-5.5152.3889-8.0802.8012-2.5301 2.2306-4.819 4.1403-6.647l.0583-.1166c-.4803-.986-.9451-1.9817-1.3477-3.0085-.3539-.8965-.245-1.651.3306-2.3842z"/><path d="m25.2487 4.44363c-.0019-.02528-.2683-2.49504-.4531-3.665747-.068-.427832-.4161-.7545383-.8284-.77592988-.2762.04083848-.5718.09334688-.8654.15363188l-.0447.003888c-.0409.011668-.1187.029168-.1984.04667l-.4901.103075c-2.8937.606743-11.6856 2.452252-21.733834 8.628592-.007779.02528-.01361.05056-.021389.07584-.106958.37338-.200305.76427-.281982 1.17075 1.361285-.564 2.950095-1.24853 3.840765-1.63164.39477-.16919.65148-.28004.68454-.29365.24697-.09334.47644-.00388.56201.21587.04862.12446.02722.21974 0 .27809-.06223.13418-.19252.18085-.27031.21003-.13418.0525-2.79842 1.2427-4.993973 2.2656-.272257 1.9991-.1828015 4.0721.254754 6.0207.437556-.2858.927619-.6087 1.444909-.9509 2.36475-1.5577 5.30706-3.4985 6.38053-4.01.01167-.0058.02528-.0136.03889-.0233.07585-.0467.20031-.1264.35199-.0836.06418.0175.15169.0641.21392.1847.0739.1459.0914.3578-.24503.5309-.43366.245-5.13982 3.199-7.934342 5.3207.06223.2158.128349.4317.200303.6417.02917.0661.071957.1498.112795.2334l.023336.0506c.766208 1.5635 1.783278 2.9987 3.025938 4.2686 2.52421-2.3162 8.51388-7.1818 8.92618-7.4716l.1983-.138.2703.4511-.1108.1245c-.1245.1381-.8946.8362-2.3589 2.1625-1.98751 1.7988-4.67896 4.2355-6.12387 5.6396 1.60437 1.4352 3.50434 2.5748 5.52097 3.3079.0778-.105.1595-.21.2548-.3306 1.2601-1.5693 5.6726-6.1666 5.6726-6.1666s-.4823 1.2582-2.8139 4.1908c-.741.9296-1.5033 1.8883-2.0828 2.6429 1.5305.4472 3.0882.665 4.6614.6592.107 0 .354-.0117.9237-.0681 2.0439-3.4829 3.3683-4.7878 3.3683-4.7878s-1.0191 2.2559-2.2637 4.6692c.8051-.0914 1.478-.1808 1.5694-.2003.317-.068.6437-.1517 1.0249-.2625.2217-.4706.4472-.9393.6748-1.408l.3947-.8479c.212-.4356.4298-.8906.6437-1.3593.1789-.4006.3501-.807.5134-1.2193.2237-.5698.2412-1.0579.0545-1.5324-.0253-.037-.0428-.0642-.0642-.0914l-.4239-.5387c-.4318-.5465-.881-1.1124-1.303-1.7016-.4784-.669-1.1318-1.5849-1.6316-2.6156-.2839-.5368-.4939-1.0502-.6398-1.5636-.1419-.4959-.1497-.9081-.0233-1.2971.0778-.5678.3559-1.1085.8401-1.6141 1.3535-1.4138 2.7848-2.93062 4.0877-4.54472.7001-.86344 1.4235-1.75605 1.8358-2.72062l-.3559-.23725-.0116-.10502z"/><path d="m57.9604 8.97864c-.1089-.03889-.2392-.08557-.2995-.22169-.0272-.05834-.0486-.15363 0-.27809.0855-.21781.315-.30727.562-.21392.035.01361.2898.12252.6845.29365.8907.3831 2.4795 1.06569 3.8408 1.62961-.0817-.4064-.175-.79728-.28-1.16483-.0078-.02917-.0156-.0564-.0234-.08362-10.0501-6.17634-18.8402-8.021854-21.7339-8.628598l-.49-.103069c-.0797-.019446-.1575-.036947-.2392-.052504-.2976-.0602855-.5931-.1127958-.8907-.155579-.3909.0233363-.739.350044-.807.777877-.1848 1.170703-.4512 3.640463-.4531 3.665743l-.0117.10502-.3559.23725c.4103.96068 1.1338 1.85523 1.8358 2.72062 1.303 1.61604 2.7342 3.13099 4.0877 4.54479.4843.5056.7604 1.0462.8479 1.651.1167.352.1089.7643-.033 1.2602-.1478.5153-.3579 1.0287-.6437 1.5693-.494 1.0171-1.1241 1.9-1.6297 2.6117-.4123.5776-.8537 1.1338-1.2796 1.6725l-.4473.5678c-.0252.0311-.0466.0642-.068.0953-.1848.457-.1692.951.0583 1.5285.1614.4123.3345.8188.5134 1.2213.212.4648.4298.9199.6418 1.3574l.243.4998-.0077.0175.1653.3423c.2236.4647.4492.9295.6689 1.3982.3812.1089.7079.1925 1.023.2625.0914.0195.7642.1089 1.5693.2003-1.2446-2.4133-2.2636-4.6672-2.2636-4.6672s1.3263 1.3049 3.3682 4.7859c.5717.0564.8168.068.9218.068 1.5557.0117 3.1329-.2119 4.6614-.6592-.5814-.7546-1.3438-1.7133-2.0828-2.6429-2.3316-2.9306-2.8139-4.1908-2.8139-4.1908s4.4125 4.5973 5.6726 6.1666c.1012.1265.1848.2354.2548.3306 2.0166-.7331 3.9166-1.8727 5.521-3.3079-1.4469-1.406-4.1442-3.8466-6.1336-5.6493-1.4585-1.3204-2.2247-2.0167-2.3492-2.1528l-.1128-.1264.2742-.4492.1965.1381c.4142.2897 6.4058 5.1592 8.9261 7.4715 1.2427-1.268 2.2597-2.7032 3.0259-4.2686l.0234-.0506c.0428-.0836.0836-.1672.1205-.2528.0662-.1945.1303-.4064.1926-.6223-2.8023-2.1256-7.5027-5.0756-7.8974-5.3012-.3754-.1945-.3559-.4045-.282-.5504.0603-.1206.1497-.1672.212-.1847.1458-.0409.2761.0369.352.0836.0136.0078.0272.0175.0408.0233 1.0715.5115 4.0099 2.4465 6.3708 4.0022.5212.3442 1.0151.669 1.4546.9568.4376-1.9486.5251-4.0216.2548-6.0208-2.1956-1.0229-4.8579-2.21303-4.9629-2.25387z"/></g></svg>